<svg width="22" height="18" viewBox="0 0 22 18" fill="none" xmlns="http://www.w3.org/2000/svg">
<path d="M11.3457 11.749L11.2998 11.7734L11.2539 11.749L5.79395 8.84473V12.7148L11.2998 15.6338L16.8057 12.7148V8.84473L11.3457 11.749ZM3.85254 6.33301L11.2998 10.2939L18.7461 6.33301L11.2998 2.37207L3.85254 6.33301ZM21.3975 13.458H20.0811V7.1123L18.1221 8.13574V13.4697L18.0703 13.4971L11.3457 17.0869L11.2998 17.1113L11.2539 17.0869L4.5293 13.4971L4.47754 13.4697V8.13574L1.25391 6.41992L1.0918 6.33398L1.25391 6.24707L11.2539 0.913086L11.2998 0.888672L11.3457 0.913086L21.3457 6.24707L21.3975 6.27441V13.458Z" fill="black" stroke="black" stroke-width="0.196"/>
</svg>
