<svg width="17" height="17" viewBox="0 0 17 17" fill="none" xmlns="http://www.w3.org/2000/svg">
<path d="M0.810986 6.80633C0.810986 3.15382 3.78018 0.184629 7.43268 0.184629C11.0852 0.184629 14.0544 3.15382 14.0544 6.80633C14.0544 8.22991 13.5907 9.54774 12.8179 10.6134L16.5355 14.3391C16.7551 14.5669 16.869 14.8679 16.869 15.1933C16.869 15.8685 16.3728 16.3891 15.6813 16.3891C15.3641 16.3891 15.0468 16.2833 14.8191 16.0474L11.0771 12.3054C10.0358 13.0132 8.79119 13.428 7.43268 13.428C3.78018 13.428 0.810986 10.4588 0.810986 6.80633ZM2.50302 6.80633C2.50302 9.53147 4.70754 11.736 7.43268 11.736C10.1578 11.736 12.3624 9.53147 12.3624 6.80633C12.3624 4.08118 10.1578 1.87666 7.43268 1.87666C4.70754 1.87666 2.50302 4.08118 2.50302 6.80633Z" fill="#000607"/>
</svg>
