<svg xmlns="http://www.w3.org/2000/svg" xmlns:xlink="http://www.w3.org/1999/xlink" width="500" zoomAndPan="magnify" viewBox="0 0 375 374.999991" height="500" preserveAspectRatio="xMidYMid meet" version="1.0"><path fill="#010101" d="M 184.289062 318.09375 C 183.601562 318.0625 181.34375 317.890625 179.277344 317.710938 C 168.867188 316.792969 158.402344 314.492188 147.839844 310.796875 C 107.660156 296.738281 76.886719 262.992188 66.511719 221.613281 C 63.777344 210.695312 62.828125 202.839844 62.828125 191.042969 C 62.828125 182.386719 63 179.234375 63.785156 173.496094 C 67.078125 149.441406 76.792969 127.496094 92.601562 108.433594 C 95.496094 104.941406 104.539062 95.90625 108.050781 92.996094 C 114.753906 87.4375 122.082031 82.429688 129.460938 78.363281 C 132.304688 76.792969 139.550781 73.390625 142.722656 72.132812 C 154.902344 67.304688 167.917969 64.203125 180.113281 63.21875 C 187.191406 62.648438 198.363281 62.792969 205.175781 63.542969 C 213.9375 64.503906 224.851562 67.039062 233.523438 70.128906 C 265.367188 81.472656 291.058594 104.277344 305.855469 134.332031 C 312.242188 147.304688 316.101562 160.382812 318.054688 175.691406 C 319.191406 184.570312 319.226562 195.136719 318.15625 204.722656 C 315.933594 224.667969 308.878906 244.027344 297.675781 260.933594 C 286.71875 277.472656 271.53125 291.710938 254.847656 301.089844 C 237.839844 310.648438 221.542969 315.808594 202.253906 317.738281 C 199.253906 318.039062 188.3125 318.253906 184.289062 318.09375 Z M 192.074219 314.433594 C 192.320312 314.128906 193.582031 310.242188 193.582031 309.785156 C 193.582031 309.441406 195.378906 309.40625 200.058594 309.65625 L 202.460938 309.789062 L 200.789062 311.21875 C 199.871094 312.003906 198.5625 313.039062 197.882812 313.515625 C 196.898438 314.207031 196.734375 314.394531 197.078125 314.445312 C 197.613281 314.527344 199.914062 313.164062 202.429688 311.277344 L 204.339844 309.839844 L 206.742188 309.976562 C 210.183594 310.171875 211.597656 310.34375 211.402344 310.535156 C 211.160156 310.773438 206.71875 312.757812 204.863281 313.457031 C 203 314.15625 203.371094 314.214844 206.789062 313.746094 C 213.023438 312.898438 218.878906 311.699219 224.757812 310.070312 C 227.617188 309.277344 228.21875 309.007812 227.597656 308.800781 C 227.460938 308.757812 227.859375 308.503906 228.484375 308.238281 C 236.796875 304.695312 244.777344 300.023438 252.839844 293.976562 L 255.597656 291.90625 L 256.496094 292.136719 C 256.992188 292.265625 258.121094 292.605469 259.007812 292.894531 L 260.617188 293.421875 L 261.617188 292.742188 C 263.835938 291.230469 267.109375 288.75 267.109375 288.578125 C 267.109375 288.390625 263.65625 287.242188 262.375 287 C 261.992188 286.929688 261.675781 286.804688 261.675781 286.722656 C 261.675781 286.644531 262.667969 285.65625 263.878906 284.53125 C 269.542969 279.261719 276.671875 270.792969 281.640625 263.429688 C 282.535156 262.101562 283.367188 261.015625 283.492188 261.015625 C 284.007812 261.019531 287.71875 262.105469 289.582031 262.800781 C 290.6875 263.21875 291.667969 263.476562 291.761719 263.382812 C 291.851562 263.285156 292.875 261.804688 294.039062 260.085938 C 295.710938 257.609375 296.09375 256.910156 295.882812 256.714844 C 295.449219 256.3125 293.042969 255.4375 290.386719 254.722656 C 289.015625 254.355469 287.820312 253.992188 287.738281 253.921875 C 287.652344 253.851562 288.285156 252.480469 289.144531 250.878906 C 293.414062 242.898438 297.523438 232.714844 299.898438 224.253906 C 300.265625 222.933594 300.632812 221.78125 300.710938 221.699219 C 300.980469 221.410156 306.839844 223.121094 309.464844 224.253906 C 310.070312 224.515625 310.601562 224.691406 310.644531 224.648438 C 310.734375 224.554688 312.644531 217.003906 312.644531 216.746094 C 312.644531 216.292969 308.058594 214.660156 304.113281 213.707031 C 302.738281 213.375 302.59375 213.292969 302.695312 212.894531 C 302.945312 211.867188 303.886719 205.945312 304.269531 202.949219 C 305.105469 196.425781 305.226562 194.222656 305.226562 185.464844 L 305.226562 176.855469 L 305.75 176.980469 C 308.394531 177.597656 311.921875 178.628906 313.132812 179.140625 C 313.949219 179.480469 314.703125 179.761719 314.804688 179.761719 C 315.234375 179.761719 314.132812 171.476562 313.667969 171.183594 C 313.011719 170.769531 309.660156 169.65625 307.109375 169.007812 L 304.394531 168.3125 L 303.835938 164.691406 C 302.375 155.21875 300.046875 146.359375 296.742188 137.695312 C 296.175781 136.214844 295.757812 134.957031 295.8125 134.902344 C 295.996094 134.71875 301.292969 136.167969 302.898438 136.84375 C 303.183594 136.960938 302.855469 136.152344 301.703125 133.894531 C 299.316406 129.199219 299.621094 129.546875 297.246094 128.8125 C 296.121094 128.46875 294.542969 128.015625 293.738281 127.8125 L 292.277344 127.4375 L 290.867188 124.742188 C 286.617188 116.605469 281.019531 108.355469 275.527344 102.132812 C 274.804688 101.3125 274.210938 100.59375 274.210938 100.535156 C 274.210938 100.480469 274.886719 100.605469 275.714844 100.820312 C 276.542969 101.03125 277.253906 101.175781 277.292969 101.136719 C 277.371094 101.058594 273.542969 97.542969 272.078125 96.351562 C 271.460938 95.847656 270.652344 95.433594 269.894531 95.238281 C 268.851562 94.964844 268.449219 94.691406 266.867188 93.1875 C 264.828125 91.246094 261.117188 88.117188 259.601562 87.058594 C 258.863281 86.542969 258.429688 86.382812 257.917969 86.433594 C 257.234375 86.5 257.238281 86.503906 259.402344 88.300781 C 262.589844 90.953125 266.089844 94.390625 265.4375 94.238281 C 265.148438 94.171875 262.140625 93.734375 258.753906 93.265625 C 255.363281 92.796875 252.308594 92.371094 251.964844 92.316406 C 251.507812 92.246094 251.027344 91.847656 250.1875 90.84375 C 248.1875 88.449219 243.074219 83.40625 240.4375 81.226562 C 237.449219 78.75 236.308594 77.894531 233.664062 76.144531 C 232.585938 75.429688 231.328125 74.550781 230.867188 74.1875 C 229.355469 72.988281 224.917969 71.011719 221.992188 70.234375 C 216.628906 68.808594 204.5 66.703125 205.175781 67.316406 C 205.292969 67.421875 206.0625 67.960938 206.886719 68.515625 C 207.714844 69.074219 208.605469 69.765625 208.871094 70.054688 L 209.355469 70.578125 L 204.566406 70.445312 C 201.9375 70.371094 199.042969 70.3125 198.140625 70.3125 C 196.761719 70.3125 196.472656 70.253906 196.367188 69.945312 C 196.296875 69.746094 195.964844 68.851562 195.628906 67.960938 L 195.015625 66.34375 L 193.859375 66.34375 C 192.964844 66.34375 192.730469 66.410156 192.8125 66.628906 C 192.875 66.789062 192.992188 67.679688 193.070312 68.613281 L 193.21875 70.3125 L 186.246094 70.304688 L 179.277344 70.300781 L 183.183594 66.488281 L 181.988281 66.613281 C 180.652344 66.75 179.519531 67.402344 177.4375 69.242188 C 176.769531 69.828125 176.019531 70.351562 175.765625 70.402344 C 175.515625 70.453125 173.472656 70.546875 171.234375 70.613281 C 168.992188 70.675781 166.363281 70.78125 165.386719 70.84375 L 163.609375 70.957031 L 165.578125 69.933594 C 167.351562 69.015625 167.492188 68.898438 167 68.777344 C 166.375 68.621094 165.222656 69.027344 162.675781 70.308594 C 161.085938 71.109375 160.824219 71.171875 157.8125 71.464844 C 156.0625 71.636719 154.347656 71.832031 154.003906 71.894531 C 152.222656 72.226562 144.007812 75.246094 141.640625 76.441406 C 135.332031 79.617188 127.785156 85.105469 120.4375 91.851562 L 118.703125 93.445312 L 115.882812 93.996094 C 111.453125 94.859375 111.054688 95.019531 109.125 96.679688 C 106.628906 98.828125 104.457031 100.910156 104.875 100.75 C 105.761719 100.40625 113.417969 98.722656 113.554688 98.839844 C 113.59375 98.871094 112.886719 99.777344 111.980469 100.847656 C 108.625 104.820312 104.402344 110.757812 101.480469 115.613281 C 100.460938 117.304688 97.941406 121.957031 96.265625 125.238281 C 96.164062 125.4375 94.960938 125.769531 92.785156 126.203125 C 89.257812 126.902344 86.699219 127.527344 85.195312 128.058594 C 84.691406 128.238281 84.234375 128.34375 84.1875 128.292969 C 84.070312 128.179688 87.09375 122.890625 88.792969 120.234375 C 90.554688 117.480469 94.082031 112.519531 95.835938 110.332031 C 97.921875 107.734375 97.273438 108.304688 94.839844 111.207031 C 87.902344 119.488281 81.285156 130.144531 77.441406 139.226562 C 73.496094 148.546875 69.871094 161.289062 68.960938 169.027344 C 68.847656 169.996094 68.738281 170.21875 68.257812 170.46875 C 67.628906 170.792969 67.714844 170.425781 66.996094 175.980469 C 66.769531 177.75 66.621094 179.238281 66.667969 179.285156 C 66.71875 179.335938 66.949219 179.253906 67.183594 179.105469 C 67.421875 178.957031 67.65625 178.882812 67.707031 178.933594 C 67.761719 178.988281 67.707031 180.535156 67.59375 182.375 C 67.367188 185.984375 67.503906 194.832031 67.847656 198.875 C 68.179688 202.789062 68.859375 207.953125 69.539062 211.714844 C 70.210938 215.460938 70.234375 215.242188 69.101562 215.894531 C 68.84375 216.042969 68.878906 216.417969 69.367188 218.542969 C 69.675781 219.902344 70.128906 221.734375 70.367188 222.617188 L 70.804688 224.214844 L 72.195312 223.394531 L 72.742188 225.234375 C 75.570312 234.746094 80.167969 245.386719 84.921875 253.421875 L 86.175781 255.539062 L 85.097656 256.34375 L 85.816406 257.480469 C 86.210938 258.105469 87.226562 259.625 88.066406 260.855469 L 89.597656 263.097656 L 90.167969 262.800781 C 90.738281 262.507812 90.742188 262.507812 91.96875 264.214844 C 97.710938 272.191406 105.824219 281.003906 112.800781 286.835938 C 113.460938 287.390625 114.003906 287.957031 114.003906 288.101562 C 114.003906 288.742188 124.421875 295.835938 129.695312 298.785156 C 132.402344 300.296875 138.53125 303.417969 138.800781 303.417969 C 138.886719 303.417969 137.597656 302.65625 135.933594 301.726562 C 131.34375 299.160156 126.515625 296.078125 122.789062 293.324219 L 121.65625 292.488281 L 122.582031 292.210938 C 123.089844 292.058594 124.839844 291.640625 126.464844 291.285156 L 129.425781 290.636719 L 131.582031 292.453125 C 137.734375 297.636719 145.921875 303.035156 152.972656 306.550781 L 156.089844 308.105469 L 154.695312 308.425781 C 153.925781 308.597656 153.242188 308.796875 153.179688 308.867188 C 153.054688 308.992188 154.355469 309.398438 158.8125 310.621094 C 160.832031 311.175781 161.53125 311.285156 162.140625 311.144531 C 162.785156 311 163.316406 311.109375 165.246094 311.773438 C 168.160156 312.777344 169.648438 313.082031 174.957031 313.761719 C 180.191406 314.433594 180.792969 314.402344 178.828125 313.5625 C 177.015625 312.789062 172.277344 310.265625 172.277344 310.078125 C 172.277344 310 173.851562 309.875 175.777344 309.800781 C 177.703125 309.726562 179.484375 309.621094 179.742188 309.566406 C 180.109375 309.488281 180.664062 309.910156 182.386719 311.578125 C 185.730469 314.816406 185.425781 314.671875 188.910156 314.6875 C 191.03125 314.691406 191.921875 314.621094 192.074219 314.433594 Z M 221.933594 307.929688 L 219.058594 307.488281 L 220.6875 306.515625 C 222.835938 305.226562 227.042969 302.269531 229.492188 300.324219 C 232.453125 297.96875 234.515625 296.125 237.96875 292.746094 L 241.101562 289.675781 L 245.59375 290.257812 C 250.339844 290.875 252.699219 291.269531 252.953125 291.496094 C 253.296875 291.796875 244.839844 298.046875 240.164062 300.949219 C 233.949219 304.808594 226.808594 308.445312 225.542969 308.398438 C 225.140625 308.382812 223.515625 308.171875 221.933594 307.929688 Z M 154.941406 306.542969 C 147.984375 302.839844 141.078125 298.101562 134.917969 292.792969 C 132.523438 290.734375 132.183594 290.367188 132.542969 290.234375 C 132.902344 290.101562 139.757812 289.308594 144.101562 288.898438 L 145.484375 288.769531 L 147.175781 290.746094 C 152.515625 296.988281 156.875 300.953125 164.949219 306.902344 C 165.164062 307.0625 164.699219 307.140625 162.253906 307.363281 C 160.816406 307.492188 159.125 307.648438 158.492188 307.710938 C 157.394531 307.816406 157.238281 307.765625 154.941406 306.542969 Z M 212.488281 307.050781 C 210.535156 306.898438 208.671875 306.75 208.347656 306.714844 C 207.773438 306.65625 207.792969 306.617188 209.464844 304.773438 C 212.6875 301.222656 216.40625 296.003906 219.316406 290.945312 C 220.136719 289.523438 220.878906 288.316406 220.96875 288.261719 C 221.277344 288.066406 236.734375 289.164062 237.203125 289.414062 C 237.546875 289.59375 230.183594 297.207031 227.097656 299.863281 C 222.929688 303.445312 217.355469 307.402344 216.542969 307.355469 C 216.265625 307.339844 214.441406 307.203125 212.488281 307.050781 Z M 166.011719 305.898438 C 163.71875 304.132812 160.835938 301.507812 157.960938 298.578125 C 154.714844 295.269531 153.484375 293.875 151.085938 290.792969 C 149.660156 288.957031 149.515625 288.699219 149.867188 288.570312 C 150.085938 288.488281 153.410156 288.273438 157.25 288.089844 C 161.09375 287.90625 165.039062 287.714844 166.023438 287.664062 L 167.808594 287.574219 L 168.828125 290.011719 C 170.921875 295.027344 173.855469 300.578125 176.476562 304.488281 L 177.683594 306.289062 L 175.660156 306.414062 C 174.546875 306.484375 172.179688 306.597656 170.398438 306.664062 L 167.160156 306.78125 Z M 198.597656 306.351562 C 196.066406 306.28125 194.535156 306.15625 194.554688 306.027344 C 194.570312 305.914062 194.828125 304.457031 195.128906 302.789062 C 195.875 298.65625 196.609375 293.875 197.046875 290.316406 L 197.410156 287.34375 L 201.710938 287.453125 C 208.246094 287.621094 216.410156 287.953125 216.515625 288.054688 C 216.648438 288.1875 212.867188 295.445312 211.449219 297.777344 C 209.871094 300.367188 207.648438 303.621094 206.382812 305.191406 L 205.371094 306.445312 L 204.019531 306.457031 C 203.277344 306.460938 200.835938 306.414062 198.597656 306.351562 Z M 179.949219 305.457031 C 179.046875 303.902344 177.800781 301.3125 176.554688 298.402344 C 175.304688 295.476562 172.695312 288.363281 172.695312 287.882812 C 172.695312 287.492188 176.367188 287.335938 185.40625 287.335938 L 192.789062 287.335938 L 192.664062 289.265625 C 192.59375 290.328125 192.433594 293.546875 192.304688 296.421875 C 192.179688 299.292969 192.015625 302.675781 191.941406 303.941406 L 191.808594 306.238281 L 186.136719 306.292969 L 180.46875 306.347656 Z M 112.644531 285.0625 C 107.371094 280.292969 101.351562 273.824219 97.011719 268.261719 C 94.894531 265.542969 92.488281 262.167969 92.488281 261.90625 C 92.488281 261.792969 93.398438 261.441406 94.507812 261.125 C 96.78125 260.480469 103.175781 259.136719 103.378906 259.261719 C 103.453125 259.304688 103.964844 260.070312 104.515625 260.960938 C 109.46875 268.964844 115.632812 276.957031 121.574219 283.074219 L 123.828125 285.390625 L 121.472656 285.851562 C 120.179688 286.105469 118.300781 286.542969 117.304688 286.824219 C 116.304688 287.105469 115.410156 287.332031 115.320312 287.332031 C 115.226562 287.332031 114.023438 286.308594 112.644531 285.0625 Z M 257.917969 286.066406 C 257.09375 285.863281 249.164062 284.730469 247 284.503906 L 245.585938 284.359375 L 246.289062 283.496094 C 251.046875 277.671875 256.175781 269.808594 260.507812 261.695312 C 262.496094 257.96875 262.558594 257.882812 263.210938 257.882812 C 264.683594 257.882812 278.597656 259.847656 279.914062 260.242188 C 280.441406 260.398438 272.664062 271.316406 268.796875 275.84375 C 265.105469 280.171875 259.261719 286.304688 258.867188 286.265625 C 258.746094 286.253906 258.320312 286.164062 257.917969 286.066406 Z M 124.296875 282.480469 C 119.765625 277.472656 115.816406 272.394531 112.226562 266.96875 C 110.152344 263.828125 107.03125 258.710938 107.144531 258.632812 C 107.433594 258.425781 121.101562 256.902344 124.339844 256.714844 L 126.429688 256.59375 L 128.1875 260.484375 C 131.472656 267.761719 136.515625 276.628906 140.519531 282.164062 C 140.996094 282.824219 141.3125 283.363281 141.21875 283.363281 C 139.96875 283.367188 127.652344 284.726562 126.941406 284.941406 C 126.722656 285.007812 125.835938 284.179688 124.296875 282.480469 Z M 239.222656 283.773438 C 237.335938 283.582031 229.769531 283.03125 226.21875 282.828125 C 224.929688 282.753906 223.871094 282.621094 223.871094 282.53125 C 223.871094 282.441406 224.539062 280.875 225.359375 279.054688 C 228.148438 272.847656 231.3125 264.304688 233.382812 257.386719 L 233.9375 255.539062 L 235.847656 255.667969 C 236.898438 255.738281 240.582031 255.984375 244.027344 256.214844 C 250.78125 256.667969 257.339844 257.234375 257.480469 257.375 C 257.628906 257.523438 253.222656 266.203125 251.28125 269.578125 C 248.84375 273.816406 246.292969 277.8125 243.875 281.171875 C 241.695312 284.203125 241.972656 284.050781 239.222656 283.773438 Z M 143.847656 280.386719 C 141.441406 276.519531 139.238281 272.488281 136.859375 267.613281 C 134.765625 263.324219 131.964844 256.871094 131.964844 256.328125 C 131.964844 256.027344 132.636719 255.972656 142.097656 255.480469 C 151.496094 254.992188 157.957031 254.765625 158.09375 254.921875 C 158.160156 255 158.429688 256.050781 158.6875 257.253906 C 160.027344 263.515625 162.214844 271.566406 164.265625 277.792969 C 165.015625 280.070312 165.597656 281.96875 165.5625 282.003906 C 165.523438 282.042969 162.953125 282.179688 159.851562 282.308594 C 156.75 282.433594 152.800781 282.628906 151.078125 282.738281 C 149.355469 282.847656 147.378906 282.9375 146.691406 282.9375 L 145.4375 282.941406 Z M 214.679688 282.3125 C 212.898438 282.226562 208.445312 282.089844 204.78125 282 L 198.121094 281.839844 L 198.25 280.253906 C 198.320312 279.378906 198.65625 275.65625 198.996094 271.980469 C 199.335938 268.304688 199.769531 262.996094 199.964844 260.179688 C 200.15625 257.363281 200.347656 254.945312 200.390625 254.800781 C 200.445312 254.609375 201.199219 254.539062 203.238281 254.539062 C 206.578125 254.535156 227.210938 255.15625 227.566406 255.273438 C 228.261719 255.496094 222.734375 273.285156 219.378906 281.640625 C 219.078125 282.390625 218.933594 282.523438 218.46875 282.496094 C 218.167969 282.476562 216.460938 282.394531 214.679688 282.3125 Z M 86.5 252.503906 C 81.550781 243.753906 77.898438 235.203125 74.933594 225.410156 C 74.480469 223.921875 74.183594 222.632812 74.265625 222.550781 C 74.746094 222.074219 86.828125 219.28125 87.257812 219.546875 C 87.351562 219.605469 87.492188 219.996094 87.570312 220.414062 C 87.824219 221.761719 89.710938 228.226562 90.824219 231.5625 C 92.765625 237.394531 95.578125 244.222656 98.15625 249.367188 C 98.828125 250.714844 99.382812 251.890625 99.382812 251.980469 C 99.382812 252.070312 97.996094 252.414062 96.300781 252.746094 C 94.605469 253.074219 92.058594 253.660156 90.640625 254.046875 C 89.222656 254.433594 87.996094 254.75 87.914062 254.75 C 87.835938 254.75 87.199219 253.738281 86.5 252.503906 Z M 257.890625 249.933594 C 255.019531 249.621094 245.378906 248.914062 240.683594 248.667969 C 238.15625 248.539062 236.054688 248.398438 236.011719 248.363281 C 235.96875 248.324219 236.375 246.429688 236.914062 244.15625 C 238.78125 236.273438 240.574219 226.617188 241.640625 218.742188 L 242.117188 215.21875 L 244.742188 215.359375 C 252.636719 215.789062 269.28125 217.039062 269.957031 217.253906 C 270.246094 217.34375 269.523438 220.933594 267.925781 227.386719 C 266.15625 234.519531 263.808594 241.929688 261.082031 249.003906 C 260.617188 250.203125 260.550781 250.222656 257.890625 249.933594 Z M 127.839844 244.890625 C 125.632812 237.964844 123.863281 231.070312 122.363281 223.5625 C 121.246094 217.976562 120.925781 215.871094 121.183594 215.792969 C 121.695312 215.632812 138.175781 214.769531 145.019531 214.542969 C 146.972656 214.480469 149.382812 214.371094 150.375 214.304688 L 152.179688 214.1875 L 152.324219 215.722656 C 153.128906 224.394531 154.335938 233.757812 155.695312 241.875 C 156.210938 244.960938 156.605469 247.511719 156.570312 247.535156 C 156.535156 247.5625 152.515625 247.746094 147.632812 247.941406 C 142.75 248.132812 137.578125 248.378906 136.144531 248.480469 C 134.707031 248.582031 132.539062 248.726562 131.328125 248.796875 L 129.121094 248.921875 Z M 223.347656 247.84375 C 221.394531 247.757812 215.570312 247.578125 210.402344 247.445312 C 205.238281 247.3125 200.976562 247.175781 200.941406 247.136719 C 200.902344 247.097656 201.0625 243.367188 201.296875 238.84375 C 201.53125 234.324219 201.816406 228.132812 201.933594 225.089844 C 202.050781 222.042969 202.203125 218.292969 202.273438 216.753906 L 202.402344 213.953125 L 210.683594 214.09375 C 218.628906 214.234375 226.667969 214.484375 232.238281 214.761719 L 234.863281 214.894531 L 234.484375 218.164062 C 233.457031 227.042969 231.398438 239.546875 229.792969 246.65625 L 229.476562 248.066406 L 228.1875 248.03125 C 227.480469 248.011719 225.300781 247.925781 223.347656 247.84375 Z M 163.515625 245.765625 C 162.980469 242.191406 162.015625 234.253906 161.523438 229.371094 C 160.894531 223.175781 160.171875 214.160156 160.292969 214.03125 C 160.339844 213.984375 168.042969 213.898438 177.40625 213.847656 L 194.4375 213.753906 L 194.3125 220.308594 C 194.246094 223.914062 194.105469 231.410156 194 236.96875 C 193.898438 242.523438 193.785156 247.097656 193.75 247.132812 C 193.714844 247.164062 186.953125 247.226562 178.71875 247.265625 L 163.75 247.332031 Z M 71.625 211.878906 C 69.890625 202.640625 69.109375 191.941406 69.511719 183 C 69.621094 180.585938 69.710938 178.453125 69.714844 178.257812 C 69.71875 177.996094 70.222656 177.742188 71.652344 177.285156 C 74.59375 176.34375 83.132812 174.515625 83.390625 174.773438 C 83.4375 174.820312 83.386719 177.160156 83.277344 179.972656 C 82.925781 188.914062 83.648438 200.042969 85.15625 208.878906 C 85.363281 210.105469 85.476562 211.136719 85.410156 211.175781 C 85.339844 211.214844 84.90625 211.3125 84.445312 211.390625 C 82.21875 211.765625 75.695312 213.238281 74.210938 213.699219 C 73.292969 213.984375 72.433594 214.222656 72.300781 214.222656 C 72.164062 214.226562 71.878906 213.246094 71.625 211.878906 Z M 294.574219 211.804688 C 292.390625 211.4375 287.738281 210.78125 284.234375 210.34375 C 280.730469 209.90625 277.796875 209.496094 277.71875 209.433594 C 277.636719 209.367188 277.753906 208.058594 277.980469 206.519531 C 279.160156 198.496094 279.683594 190.535156 279.675781 180.753906 C 279.671875 173.3125 279.683594 173.078125 280.074219 173.078125 C 282.390625 173.078125 300.730469 175.714844 301.117188 176.105469 C 301.382812 176.371094 301.269531 192.890625 300.980469 196.160156 C 300.472656 201.945312 299.035156 212.0625 298.679688 212.355469 C 298.605469 212.417969 296.757812 212.171875 294.574219 211.804688 Z M 89.875 210.207031 C 89.695312 209.707031 88.746094 202.617188 88.429688 199.398438 C 87.71875 192.214844 87.480469 183.277344 87.820312 176.601562 L 87.957031 173.960938 L 88.917969 173.828125 C 93.855469 173.128906 96.796875 172.773438 101.992188 172.25 C 105.324219 171.910156 108.847656 171.574219 109.824219 171.496094 L 111.601562 171.359375 L 111.601562 180.9375 C 111.601562 186.757812 111.707031 191.996094 111.871094 194.28125 C 112.136719 197.917969 112.808594 204.964844 113.085938 206.949219 L 113.21875 207.921875 L 111.886719 208.046875 C 105.113281 208.691406 95.410156 209.734375 93.15625 210.0625 C 89.867188 210.542969 89.992188 210.535156 89.875 210.207031 Z M 268.546875 208.679688 C 265.226562 208.335938 252.871094 207.417969 247.371094 207.105469 C 245.070312 206.976562 243.15625 206.835938 243.113281 206.796875 C 243.074219 206.761719 243.144531 205.523438 243.273438 204.054688 C 243.941406 196.484375 244.164062 191.398438 244.277344 181.277344 L 244.398438 170.363281 L 245.765625 170.363281 C 246.519531 170.363281 248.410156 170.453125 249.96875 170.566406 C 251.527344 170.675781 254.398438 170.867188 256.351562 170.992188 C 261.292969 171.300781 273 172.246094 273.347656 172.363281 C 273.585938 172.441406 273.617188 174.046875 273.523438 182.117188 C 273.410156 191.894531 273.195312 195.675781 272.320312 203.15625 C 271.726562 208.238281 271.628906 208.859375 271.390625 208.910156 C 271.273438 208.933594 269.996094 208.832031 268.546875 208.679688 Z M 119.761719 207.296875 C 119.636719 206.914062 119.074219 201.148438 118.8125 197.621094 C 118.234375 189.785156 118.035156 178.976562 118.363281 173.183594 L 118.492188 170.886719 L 124.027344 170.535156 C 129.074219 170.210938 148.253906 169.320312 150.097656 169.320312 L 150.867188 169.320312 L 150.792969 177.097656 C 150.722656 184.589844 150.996094 196.425781 151.394531 202.730469 C 151.496094 204.390625 151.550781 205.78125 151.511719 205.820312 C 151.476562 205.859375 148.164062 206.023438 144.160156 206.1875 C 132.453125 206.664062 121.484375 207.253906 120.425781 207.460938 C 120.050781 207.535156 119.820312 207.480469 119.761719 207.296875 Z M 159.652344 203.695312 C 159.21875 197.335938 158.914062 171.9375 159.25 169.921875 L 159.375 169.167969 L 160.867188 169.035156 C 161.6875 168.964844 169.628906 168.839844 178.515625 168.765625 L 194.671875 168.625 L 194.597656 186.917969 C 194.558594 196.980469 194.476562 205.253906 194.417969 205.308594 C 194.363281 205.359375 186.542969 205.445312 177.046875 205.5 L 159.78125 205.59375 Z M 70.867188 168.253906 C 72.039062 159.296875 75.261719 147.941406 79.46875 137.941406 L 80.410156 135.699219 L 82.324219 135.085938 C 84.296875 134.453125 92.652344 132.648438 92.820312 132.816406 C 92.871094 132.871094 92.5 133.984375 91.996094 135.292969 C 88.726562 143.78125 86.179688 153.609375 84.75 163.25 C 84.519531 164.792969 84.3125 166.070312 84.285156 166.085938 C 84.257812 166.105469 82.453125 166.472656 80.269531 166.90625 C 76.882812 167.574219 72.480469 168.691406 71.105469 169.230469 C 70.746094 169.371094 70.726562 169.300781 70.867188 168.253906 Z M 298.230469 167.113281 C 295.324219 166.515625 280.640625 164.515625 279.1875 164.515625 C 279.003906 164.515625 278.917969 164.015625 278.488281 160.335938 C 277.507812 151.945312 275.503906 142.179688 273.175781 134.445312 C 272.710938 132.898438 272.328125 131.546875 272.328125 131.441406 C 272.328125 130.960938 291.316406 133.539062 291.890625 134.097656 C 292.476562 134.664062 295.523438 143.785156 296.960938 149.265625 C 298.351562 154.582031 300.320312 164.964844 300.320312 167.007812 C 300.320312 167.503906 300.179688 167.511719 298.230469 167.113281 Z M 88.804688 164.984375 C 88.859375 164.785156 88.96875 164.101562 89.042969 163.46875 C 89.886719 156.296875 92.203125 146.320312 94.882812 138.300781 C 96.808594 132.550781 96.96875 132.171875 97.554688 132.039062 C 99.042969 131.699219 112.367188 130.234375 116.796875 129.921875 L 118.792969 129.78125 L 118.371094 131.222656 C 115.984375 139.375 113.992188 149.167969 112.960938 157.832031 C 112.320312 163.210938 112.421875 162.8125 111.644531 162.921875 C 111.277344 162.976562 107.871094 163.316406 104.082031 163.683594 C 100.289062 164.046875 95.449219 164.570312 93.324219 164.847656 C 88.628906 165.453125 88.671875 165.453125 88.804688 164.984375 Z M 271.597656 163.78125 C 271.484375 163.738281 270.121094 163.605469 268.570312 163.484375 C 267.019531 163.363281 263.964844 163.125 261.78125 162.953125 C 259.597656 162.78125 254.714844 162.449219 250.929688 162.210938 C 247.140625 161.976562 244.027344 161.761719 244.007812 161.738281 C 243.988281 161.714844 243.859375 160.097656 243.726562 158.144531 C 243.132812 149.640625 241.773438 138.433594 240.503906 131.617188 C 240.226562 130.125 240.039062 128.863281 240.082031 128.8125 C 240.171875 128.71875 247.300781 129.085938 252.171875 129.4375 C 258.296875 129.882812 265.5625 130.480469 266.085938 130.585938 C 266.574219 130.6875 266.691406 130.917969 267.28125 132.933594 C 269.488281 140.476562 271.769531 152.328125 272.535156 160.234375 C 272.660156 161.496094 272.808594 162.835938 272.867188 163.210938 C 272.96875 163.84375 272.933594 163.886719 272.390625 163.871094 C 272.070312 163.863281 271.714844 163.820312 271.597656 163.78125 Z M 229.511719 161.15625 C 225.164062 160.921875 211.046875 160.542969 206.714844 160.546875 L 203.03125 160.546875 L 202.898438 153.914062 C 202.632812 140.515625 202.351562 129.707031 202.234375 128.640625 L 202.117188 127.542969 L 205.65625 127.542969 C 212.710938 127.542969 232.777344 128.234375 233.027344 128.484375 C 233.300781 128.757812 234.910156 140.957031 235.453125 146.863281 C 235.902344 151.71875 236.398438 158.722656 236.402344 160.179688 L 236.402344 161.382812 L 234.472656 161.351562 C 233.410156 161.332031 231.175781 161.246094 229.511719 161.15625 Z M 159.539062 159.832031 C 159.558594 154.613281 161.832031 128.105469 162.300781 127.636719 C 162.367188 127.570312 169.652344 127.460938 178.488281 127.394531 L 194.558594 127.269531 L 194.695312 143.738281 C 194.769531 152.796875 194.808594 160.226562 194.78125 160.246094 C 194.753906 160.269531 186.8125 160.328125 177.136719 160.382812 L 159.539062 160.472656 Z M 100.214844 124.722656 C 100.214844 124.632812 101.140625 122.765625 102.265625 120.570312 C 105.800781 113.683594 109.753906 107.445312 114.136719 101.835938 C 117.074219 98.082031 116.730469 98.347656 119.121094 98.003906 C 123.15625 97.425781 133.835938 96.34375 133.992188 96.496094 C 134.027344 96.535156 133.273438 97.824219 132.308594 99.367188 C 128.726562 105.101562 124.960938 112.707031 122.335938 119.5 L 121.128906 122.632812 L 115.109375 123.1875 C 111.800781 123.496094 107.542969 123.949219 105.648438 124.195312 C 100.429688 124.878906 100.214844 124.898438 100.214844 124.722656 Z M 262.40625 123.351562 C 260.421875 123.117188 250.882812 122.410156 244.132812 121.992188 C 241.085938 121.800781 238.570312 121.625 238.535156 121.59375 C 238.5 121.5625 238.011719 119.765625 237.453125 117.597656 C 235.558594 110.296875 233.492188 103.964844 231.105469 98.136719 C 230.570312 96.835938 230.136719 95.722656 230.136719 95.660156 C 230.136719 95.59375 231.007812 95.601562 232.070312 95.675781 C 233.132812 95.75 235.410156 95.902344 237.132812 96.019531 C 238.859375 96.132812 242.664062 96.417969 245.59375 96.648438 C 251.753906 97.136719 250.929688 96.75 253.074219 100.183594 C 256.558594 105.765625 259.878906 112.421875 262.707031 119.496094 C 264.1875 123.195312 264.316406 123.597656 264.027344 123.546875 C 263.941406 123.53125 263.210938 123.445312 262.40625 123.351562 Z M 127.160156 122.0625 C 127.160156 122 127.535156 120.863281 127.996094 119.53125 C 130.246094 113.003906 133.855469 104.992188 137.042969 99.449219 L 138.964844 96.109375 L 140.53125 95.96875 C 144.277344 95.636719 162.460938 94.828125 162.460938 94.996094 C 162.460938 95.046875 162.128906 96.066406 161.722656 97.269531 C 160.054688 102.195312 157.871094 110.523438 156.632812 116.683594 C 156.273438 118.464844 155.933594 120.117188 155.882812 120.359375 C 155.789062 120.78125 155.625 120.804688 151.550781 120.945312 C 147.335938 121.089844 133.382812 121.777344 129.300781 122.039062 C 128.125 122.113281 127.160156 122.125 127.160156 122.0625 Z M 228.238281 121.199219 C 228.15625 121.125 217.46875 120.78125 207.121094 120.523438 L 201.96875 120.394531 L 201.851562 119.113281 C 201.789062 118.410156 201.589844 115.152344 201.410156 111.878906 C 201.226562 108.605469 200.898438 103.667969 200.675781 100.914062 C 200.453125 98.15625 200.269531 95.640625 200.269531 95.324219 L 200.265625 94.75 L 204.707031 94.761719 C 209.351562 94.773438 224.449219 95.257812 224.585938 95.398438 C 224.753906 95.574219 226.683594 101.269531 227.550781 104.148438 C 228.636719 107.746094 230.078125 113.355469 230.964844 117.414062 C 231.316406 119.023438 231.648438 120.550781 231.707031 120.808594 C 231.8125 121.265625 231.773438 121.277344 230.070312 121.277344 C 229.113281 121.277344 228.289062 121.242188 228.238281 121.199219 Z M 163.296875 120.164062 C 163.296875 119.371094 164.609375 111.792969 165.488281 107.492188 C 166.332031 103.363281 168.261719 95.375 168.511719 94.972656 C 168.640625 94.761719 171.421875 94.679688 181.417969 94.59375 L 194.160156 94.480469 L 194.289062 101.558594 C 194.359375 105.453125 194.472656 111.296875 194.535156 114.542969 L 194.65625 120.441406 L 181.203125 120.441406 C 173.804688 120.441406 166.746094 120.503906 165.523438 120.578125 L 163.296875 120.714844 Z M 245.28125 91.699219 C 244.527344 91.570312 236.808594 91.011719 232.171875 90.746094 L 227.628906 90.488281 L 226.242188 87.972656 C 223.550781 83.09375 220.71875 79.027344 217.550781 75.496094 L 215.707031 73.4375 L 216.8125 73.546875 C 217.421875 73.609375 219.515625 73.753906 221.46875 73.875 C 228.148438 74.28125 228.574219 74.359375 230.234375 75.484375 C 235.398438 78.992188 241.089844 84.328125 245.972656 90.230469 L 247.292969 91.828125 L 246.496094 91.796875 C 246.058594 91.78125 245.511719 91.738281 245.28125 91.699219 Z M 142.746094 90.519531 C 143.078125 89.945312 145.484375 86.816406 146.882812 85.144531 C 150.488281 80.820312 157.675781 74.316406 159.328125 73.878906 C 159.730469 73.773438 162.269531 73.582031 164.96875 73.460938 C 167.667969 73.335938 170.699219 73.183594 171.703125 73.125 C 172.710938 73.0625 173.53125 73.0625 173.53125 73.125 C 173.53125 73.1875 173.035156 73.921875 172.425781 74.753906 C 170.007812 78.054688 167.089844 83.363281 165.277344 87.753906 C 164.851562 88.789062 164.410156 89.6875 164.304688 89.757812 C 164.195312 89.828125 161.925781 89.945312 159.261719 90.027344 C 156.59375 90.105469 152.113281 90.304688 149.300781 90.472656 C 142.878906 90.851562 142.550781 90.855469 142.746094 90.519531 Z M 170.269531 89.074219 C 170.445312 88.203125 172.550781 82.539062 173.519531 80.339844 C 174.375 78.394531 176.621094 74.113281 177.164062 73.398438 C 177.410156 73.070312 178.195312 73.023438 185.375 72.894531 L 193.3125 72.753906 L 193.445312 74.300781 C 193.625 76.410156 194.082031 89.3125 193.980469 89.410156 C 193.933594 89.453125 188.554688 89.519531 182.027344 89.5625 L 170.160156 89.632812 Z M 97.816406 107.910156 C 98.023438 107.679688 98.144531 107.492188 98.089844 107.492188 C 98.03125 107.492188 97.8125 107.679688 97.605469 107.910156 C 97.398438 108.140625 97.273438 108.328125 97.332031 108.328125 C 97.390625 108.328125 97.605469 108.140625 97.816406 107.910156 Z M 97.816406 107.910156 " fill-opacity="1" fill-rule="nonzero"/><path fill="#000000" d="M 104.015625 75.296875 C 103.054688 70.3125 102.175781 67.285156 101.074219 65.175781 C 99.816406 62.761719 98.304688 61.285156 95.816406 60.039062 C 93.757812 59.003906 91 58.203125 86.425781 57.316406 C 85.652344 57.164062 85.015625 57.027344 85.015625 57.011719 C 85.015625 56.996094 85.386719 56.914062 85.839844 56.828125 C 90.550781 55.941406 93.703125 55.042969 95.816406 53.988281 C 98.308594 52.742188 99.949219 51.117188 101.164062 48.691406 C 102.230469 46.566406 103.042969 43.8125 103.898438 39.441406 C 104.054688 38.640625 104.195312 37.925781 104.214844 37.847656 C 104.238281 37.757812 104.335938 38.15625 104.496094 38.992188 C 105.046875 41.84375 105.65625 44.355469 106.199219 45.972656 C 108.214844 52.011719 111.171875 54.308594 119.292969 56.140625 C 120.605469 56.4375 123.1875 56.957031 123.347656 56.957031 C 123.40625 56.957031 123.457031 56.976562 123.457031 57 C 123.457031 57.023438 122.886719 57.152344 122.1875 57.285156 C 116.871094 58.3125 113.867188 59.257812 111.613281 60.605469 C 108.515625 62.460938 106.808594 65.242188 105.4375 70.660156 C 105.058594 72.167969 104.585938 74.359375 104.386719 75.523438 C 104.320312 75.914062 104.25 76.234375 104.230469 76.234375 C 104.214844 76.234375 104.117188 75.8125 104.015625 75.296875 Z M 104.015625 75.296875 " fill-opacity="1" fill-rule="nonzero"/><path fill="#000000" d="M 73.761719 315.429688 C 72.796875 310.445312 71.917969 307.417969 70.816406 305.308594 C 69.558594 302.898438 68.046875 301.417969 65.558594 300.171875 C 63.5 299.136719 60.742188 298.339844 56.167969 297.449219 C 55.394531 297.296875 54.757812 297.160156 54.757812 297.144531 C 54.757812 297.128906 55.128906 297.046875 55.582031 296.960938 C 60.292969 296.074219 63.445312 295.179688 65.558594 294.121094 C 68.054688 292.875 69.695312 291.25 70.90625 288.824219 C 71.972656 286.699219 72.785156 283.945312 73.640625 279.574219 C 73.796875 278.773438 73.941406 278.058594 73.957031 277.980469 C 73.980469 277.890625 74.078125 278.289062 74.238281 279.125 C 74.789062 281.976562 75.398438 284.488281 75.941406 286.105469 C 77.957031 292.144531 80.917969 294.445312 89.039062 296.273438 C 90.347656 296.570312 92.929688 297.089844 93.089844 297.089844 C 93.148438 297.089844 93.199219 297.109375 93.199219 297.132812 C 93.199219 297.15625 92.628906 297.285156 91.929688 297.417969 C 86.613281 298.445312 83.609375 299.390625 81.355469 300.738281 C 78.257812 302.59375 76.550781 305.375 75.183594 310.796875 C 74.800781 312.300781 74.328125 314.492188 74.128906 315.65625 C 74.0625 316.046875 73.992188 316.367188 73.972656 316.367188 C 73.957031 316.367188 73.859375 315.945312 73.761719 315.429688 Z M 73.761719 315.429688 " fill-opacity="1" fill-rule="nonzero"/><path fill="#000000" d="M 290.789062 76.046875 C 290.285156 73.433594 289.824219 71.847656 289.25 70.746094 C 288.589844 69.484375 287.796875 68.710938 286.496094 68.054688 C 285.417969 67.515625 283.972656 67.097656 281.578125 66.632812 C 281.171875 66.550781 280.839844 66.480469 280.839844 66.472656 C 280.839844 66.464844 281.035156 66.421875 281.273438 66.375 C 283.738281 65.910156 285.386719 65.441406 286.496094 64.890625 C 287.800781 64.238281 288.660156 63.386719 289.296875 62.117188 C 289.851562 61.003906 290.277344 59.5625 290.726562 57.273438 C 290.808594 56.855469 290.882812 56.480469 290.890625 56.441406 C 290.902344 56.394531 290.953125 56.601562 291.039062 57.039062 C 291.328125 58.53125 291.648438 59.847656 291.929688 60.695312 C 292.984375 63.855469 294.535156 65.058594 298.785156 66.015625 C 299.472656 66.171875 300.824219 66.445312 300.90625 66.445312 C 300.9375 66.445312 300.964844 66.453125 300.964844 66.464844 C 300.964844 66.476562 300.664062 66.546875 300.300781 66.617188 C 297.515625 67.152344 295.945312 67.648438 294.765625 68.355469 C 293.144531 69.324219 292.25 70.78125 291.53125 73.617188 C 291.332031 74.40625 291.085938 75.554688 290.980469 76.160156 C 290.945312 76.367188 290.910156 76.535156 290.902344 76.535156 C 290.890625 76.535156 290.839844 76.316406 290.789062 76.046875 Z M 290.789062 76.046875 " fill-opacity="1" fill-rule="nonzero"/><path fill="#000000" d="M 338.191406 245.890625 C 337.292969 241.238281 336.472656 238.414062 335.445312 236.445312 C 334.273438 234.195312 332.859375 232.816406 330.539062 231.652344 C 328.617188 230.6875 326.046875 229.941406 321.78125 229.113281 C 321.058594 228.972656 320.464844 228.84375 320.464844 228.828125 C 320.464844 228.816406 320.808594 228.738281 321.234375 228.65625 C 325.628906 227.832031 328.566406 226.996094 330.539062 226.011719 C 332.867188 224.847656 334.398438 223.332031 335.53125 221.070312 C 336.523438 219.085938 337.28125 216.519531 338.078125 212.4375 C 338.226562 211.691406 338.359375 211.023438 338.375 210.953125 C 338.394531 210.867188 338.488281 211.238281 338.636719 212.019531 C 339.148438 214.679688 339.722656 217.023438 340.226562 218.53125 C 342.105469 224.164062 344.867188 226.308594 352.441406 228.019531 C 353.664062 228.292969 356.074219 228.777344 356.222656 228.777344 C 356.28125 228.777344 356.328125 228.796875 356.324219 228.816406 C 356.324219 228.839844 355.792969 228.960938 355.140625 229.085938 C 350.179688 230.042969 347.378906 230.921875 345.277344 232.183594 C 342.386719 233.914062 340.792969 236.507812 339.519531 241.5625 C 339.164062 242.96875 338.71875 245.011719 338.535156 246.097656 C 338.472656 246.464844 338.410156 246.761719 338.390625 246.761719 C 338.375 246.761719 338.285156 246.371094 338.191406 245.890625 Z M 338.191406 245.890625 " fill-opacity="1" fill-rule="nonzero"/><path fill="#000000" d="M 36.378906 225.261719 C 35.875 222.652344 35.414062 221.066406 34.839844 219.960938 C 34.179688 218.699219 33.386719 217.925781 32.085938 217.273438 C 31.007812 216.730469 29.566406 216.3125 27.171875 215.847656 C 26.765625 215.769531 26.433594 215.695312 26.433594 215.6875 C 26.433594 215.679688 26.625 215.636719 26.863281 215.589844 C 29.332031 215.128906 30.980469 214.65625 32.085938 214.105469 C 33.390625 213.453125 34.25 212.601562 34.886719 211.332031 C 35.445312 210.21875 35.871094 208.777344 36.316406 206.488281 C 36.398438 206.070312 36.472656 205.695312 36.484375 205.65625 C 36.496094 205.609375 36.546875 205.816406 36.632812 206.253906 C 36.917969 207.746094 37.238281 209.0625 37.523438 209.910156 C 38.578125 213.070312 40.125 214.273438 44.378906 215.230469 C 45.0625 215.386719 46.414062 215.660156 46.5 215.660156 C 46.53125 215.660156 46.554688 215.667969 46.554688 215.679688 C 46.554688 215.691406 46.257812 215.761719 45.890625 215.832031 C 43.109375 216.367188 41.535156 216.863281 40.355469 217.570312 C 38.734375 218.539062 37.839844 219.996094 37.125 222.832031 C 36.925781 223.621094 36.675781 224.769531 36.574219 225.378906 C 36.539062 225.582031 36.503906 225.75 36.492188 225.75 C 36.484375 225.75 36.433594 225.53125 36.378906 225.261719 Z M 36.378906 225.261719 " fill-opacity="1" fill-rule="nonzero"/><path fill="#000000" d="M 301.722656 308.730469 C 301.21875 306.121094 300.757812 304.535156 300.183594 303.433594 C 299.523438 302.167969 298.730469 301.394531 297.429688 300.742188 C 296.351562 300.203125 294.910156 299.785156 292.515625 299.316406 C 292.109375 299.238281 291.777344 299.167969 291.777344 299.160156 C 291.777344 299.148438 291.96875 299.105469 292.207031 299.0625 C 294.671875 298.597656 296.324219 298.128906 297.429688 297.578125 C 298.734375 296.925781 299.59375 296.074219 300.230469 294.804688 C 300.789062 293.691406 301.210938 292.25 301.660156 289.960938 C 301.742188 289.542969 301.816406 289.167969 301.828125 289.125 C 301.839844 289.078125 301.890625 289.289062 301.972656 289.726562 C 302.261719 291.21875 302.582031 292.53125 302.863281 293.378906 C 303.917969 296.542969 305.46875 297.746094 309.71875 298.703125 C 310.40625 298.859375 311.757812 299.128906 311.84375 299.128906 C 311.875 299.128906 311.898438 299.140625 311.898438 299.152344 C 311.898438 299.164062 311.601562 299.230469 311.234375 299.300781 C 308.449219 299.839844 306.878906 300.332031 305.699219 301.039062 C 304.078125 302.011719 303.183594 303.46875 302.46875 306.304688 C 302.269531 307.09375 302.019531 308.238281 301.917969 308.847656 C 301.882812 309.054688 301.84375 309.222656 301.835938 309.222656 C 301.824219 309.222656 301.773438 309 301.722656 308.730469 Z M 301.722656 308.730469 " fill-opacity="1" fill-rule="nonzero"/></svg>