<?xml version="1.0" standalone="no"?>
<!DOCTYPE svg PUBLIC "-//W3C//DTD SVG 20010904//EN"
 "http://www.w3.org/TR/2001/REC-SVG-20010904/DTD/svg10.dtd">
<svg version="1.0" xmlns="http://www.w3.org/2000/svg"
 width="5000.000000pt" height="5000.000000pt" viewBox="0 0 5000.000000 5000.000000"
 preserveAspectRatio="xMidYMid meet">
<metadata>
Created by potrace 1.16, written by Peter Selinger 2001-2019
</metadata>
<g transform="translate(0.000000,5000.000000) scale(0.100000,-0.100000)"
fill="#000000" stroke="none">
<path d="M15061 39116 c-58 -19 -97 -58 -121 -123 -25 -67 -25 -109 -1 -173
27 -70 30 -75 501 -605 107 -122 236 -268 286 -325 50 -58 133 -152 184 -210
124 -141 319 -365 405 -465 68 -80 117 -136 295 -335 113 -127 416 -478 660
-765 52 -62 140 -163 196 -226 55 -63 186 -213 290 -334 104 -122 252 -293
329 -381 396 -453 466 -533 530 -609 97 -114 288 -335 425 -491 185 -210 454
-523 640 -744 96 -113 199 -234 231 -270 183 -208 384 -450 414 -500 l34 -56
11 -72 12 -72 -11 -71 -11 -71 -40 -58 c-44 -65 -90 -104 -170 -146 l-55 -29
-85 0 -85 0 -55 24 c-85 37 -155 97 -305 263 -77 84 -203 221 -280 303 -77 83
-190 204 -250 270 -61 66 -240 260 -400 430 -159 171 -344 369 -410 440 -66
72 -185 200 -265 285 -80 85 -224 241 -320 345 -96 105 -238 258 -315 340 -77
83 -219 235 -315 340 -96 104 -283 305 -415 445 -533 568 -820 875 -996 1065
-101 110 -227 245 -279 300 -216 228 -410 435 -475 505 -197 214 -514 550
-625 661 l-125 125 -58 18 -58 18 -37 -7 c-100 -18 -156 -65 -192 -162 l-21
-57 5 -31 c12 -59 73 -148 258 -372 102 -126 240 -293 304 -373 168 -206 1041
-1297 1284 -1604 113 -143 258 -324 323 -403 65 -79 265 -327 445 -551 179
-224 376 -468 437 -543 253 -313 431 -533 551 -684 70 -88 193 -240 273 -339
80 -98 155 -190 166 -205 11 -14 155 -193 320 -396 598 -737 815 -1017 870
-1125 l29 -55 0 -100 0 -100 -28 -55 c-16 -30 -55 -80 -86 -111 l-58 -57 -59
-28 -58 -28 -81 -4 -81 -4 -44 22 c-104 53 -182 132 -544 554 -383 445 -1087
1259 -1350 1560 -77 88 -180 208 -230 266 -49 59 -148 173 -220 255 -277 316
-232 265 -686 790 -124 143 -265 308 -314 366 -50 58 -153 178 -230 265 -77
88 -205 236 -285 329 -80 93 -190 221 -245 284 -55 64 -136 159 -180 211 -44
52 -181 212 -305 354 -124 143 -252 291 -285 331 -33 39 -121 141 -195 226
-75 85 -192 219 -260 299 -69 80 -152 171 -185 204 l-59 59 -46 20 c-25 11
-65 20 -90 21 l-45 1 -60 -30 -60 -30 -32 -63 -33 -64 0 -39 0 -39 28 -57 c38
-78 18 -50 569 -788 127 -170 276 -370 330 -443 54 -73 118 -159 143 -191 25
-33 90 -121 145 -196 55 -75 114 -155 131 -178 17 -23 76 -103 131 -177 55
-74 125 -169 155 -210 53 -72 517 -689 612 -815 63 -83 376 -504 461 -620 78
-107 174 -235 630 -850 115 -154 232 -311 260 -350 182 -246 353 -476 382
-515 83 -108 302 -397 348 -460 28 -37 95 -128 151 -201 126 -168 243 -325
269 -363 34 -49 58 -81 116 -158 90 -118 154 -219 177 -281 l22 -59 0 -56 0
-57 -22 -63 -22 -63 -53 -59 c-66 -72 -140 -116 -229 -135 l-67 -14 -56 10
c-107 20 -196 87 -334 252 -52 62 -235 288 -408 502 -173 215 -342 424 -375
465 -100 123 -405 508 -479 605 -97 126 -358 455 -540 680 -181 224 -504 629
-700 879 -187 238 -455 575 -526 661 -82 100 -456 567 -504 630 -45 59 -256
324 -484 608 -84 106 -202 255 -261 332 -59 77 -197 253 -306 392 -110 138
-233 295 -274 348 -41 54 -101 128 -132 165 l-57 68 -62 31 -62 31 -41 0 -41
0 -50 -24 c-27 -13 -62 -36 -76 -52 -27 -30 -69 -129 -69 -164 0 -61 109 -277
312 -620 65 -110 78 -132 122 -210 35 -60 65 -111 121 -200 20 -32 98 -164
218 -370 48 -82 63 -107 119 -195 14 -22 54 -88 89 -148 35 -59 76 -126 91
-150 15 -23 37 -58 48 -77 11 -19 54 -89 95 -155 41 -66 96 -155 122 -198 26
-42 59 -95 73 -117 14 -22 43 -68 64 -102 22 -35 60 -94 84 -133 25 -38 55
-86 67 -105 63 -99 147 -231 209 -327 39 -59 90 -139 114 -178 25 -38 151
-229 281 -423 130 -195 256 -385 281 -423 25 -38 90 -134 145 -214 55 -80 109
-160 120 -178 11 -18 41 -62 66 -98 25 -35 77 -109 114 -164 85 -124 166 -242
221 -320 24 -33 52 -73 64 -90 29 -41 257 -364 317 -448 26 -37 82 -113 124
-170 41 -56 106 -145 145 -197 175 -239 418 -557 679 -891 66 -84 136 -173
155 -198 43 -57 284 -357 405 -506 459 -567 838 -917 1235 -1141 159 -89 389
-193 510 -229 25 -8 72 -23 105 -33 120 -39 202 -61 275 -72 41 -7 86 -17 99
-22 13 -5 123 -21 245 -35 l221 -27 355 3 c195 2 456 4 580 5 l225 1 115 -14
c312 -36 629 -160 940 -368 101 -67 107 -72 236 -175 295 -236 641 -609 1074
-1158 85 -107 184 -232 220 -276 36 -45 101 -128 145 -184 44 -56 107 -136
140 -178 34 -43 100 -129 148 -192 48 -63 100 -131 115 -150 179 -229 248
-320 309 -400 40 -52 122 -160 183 -240 62 -80 183 -239 270 -355 87 -115 188
-248 224 -295 37 -47 160 -209 274 -360 115 -151 273 -360 352 -465 79 -104
315 -417 523 -694 208 -278 398 -528 420 -557 23 -29 51 -65 62 -80 11 -15 93
-125 183 -243 90 -119 241 -319 337 -446 95 -126 216 -285 267 -352 51 -67
139 -181 195 -255 56 -73 143 -187 194 -253 50 -66 136 -178 190 -250 54 -71
142 -186 195 -255 119 -156 592 -782 619 -820 11 -15 52 -70 91 -122 39 -51
191 -255 339 -453 430 -577 554 -743 650 -867 50 -65 99 -130 110 -145 95
-128 509 -678 605 -802 25 -32 59 -77 75 -100 17 -23 56 -76 88 -119 33 -42
77 -102 100 -132 22 -30 113 -151 201 -269 89 -117 170 -226 181 -242 11 -16
81 -110 155 -209 165 -221 324 -435 383 -515 24 -33 98 -132 163 -220 65 -88
127 -171 136 -185 42 -60 135 -185 354 -475 93 -123 209 -280 249 -336 17 -23
50 -68 75 -99 25 -32 110 -147 190 -254 135 -183 335 -449 475 -633 415 -545
1091 -835 1748 -749 116 15 139 20 332 78 231 69 427 169 685 353 l85 60 150
150 c142 141 199 209 306 365 133 194 224 395 288 635 30 115 53 302 53 435
l0 115 -21 135 c-50 319 -179 613 -379 864 -50 63 -1775 1787 -4072 4071
-1618 1608 -5892 5885 -6150 6153 -293 304 -609 629 -945 972 -323 329 -677
699 -1100 1150 -83 89 -326 372 -446 520 -281 346 -497 700 -609 1000 -17 47
-40 108 -50 135 -11 28 -24 71 -29 96 -6 26 -16 59 -22 75 -6 16 -22 94 -35
174 l-24 145 0 145 0 145 21 155 c11 85 31 212 45 283 13 70 24 136 24 148 0
11 9 59 19 107 11 48 27 143 36 212 9 69 22 159 28 200 l11 75 0 320 0 320
-12 75 c-47 286 -49 299 -114 515 -68 229 -214 545 -342 745 -25 38 -152 228
-176 264 -467 676 -2304 2656 -3635 3916 -159 151 -346 329 -415 395 -404 388
-2091 1899 -2639 2363 l-143 122 -56 27 -55 27 -56 3 -56 3 -44 -14z"/>
<path d="M35090 39109 c-74 -4 -178 -15 -230 -24 -52 -8 -136 -20 -187 -25
-51 -6 -103 -14 -118 -20 -14 -5 -56 -14 -93 -20 -83 -12 -275 -55 -362 -81
-36 -10 -90 -25 -120 -33 -30 -8 -95 -26 -145 -41 -49 -14 -119 -35 -155 -45
-81 -24 -314 -103 -398 -135 -34 -14 -92 -36 -130 -50 -131 -50 -256 -104
-492 -211 -85 -39 -471 -233 -585 -294 -86 -47 -156 -86 -265 -149 -825 -480
-1690 -1152 -2420 -1881 -196 -197 -429 -442 -520 -550 -31 -36 -96 -112 -146
-170 -612 -716 -1075 -1495 -1283 -2165 -63 -199 -85 -277 -96 -330 -7 -33
-22 -100 -33 -150 -35 -153 -61 -296 -72 -395 -6 -52 -15 -114 -20 -137 -6
-24 -15 -111 -21 -195 l-12 -153 7 -335 6 -335 15 -90 c8 -49 21 -145 30 -213
9 -67 20 -133 24 -145 5 -13 14 -59 21 -103 6 -43 20 -113 30 -154 10 -41 26
-104 35 -140 30 -125 52 -205 64 -234 6 -16 16 -49 22 -75 5 -25 18 -68 29
-96 10 -27 25 -70 33 -95 8 -25 27 -76 42 -115 14 -38 33 -92 42 -120 8 -27
20 -55 25 -62 5 -6 18 -38 28 -70 10 -32 35 -102 54 -156 102 -283 64 -695
-102 -1112 -11 -27 -30 -75 -42 -105 -35 -87 -139 -291 -196 -383 -264 -422
-509 -714 -1314 -1562 -447 -472 -560 -593 -560 -605 0 -27 35 -71 125 -160
53 -52 176 -178 273 -280 514 -540 753 -793 812 -858 l64 -72 23 0 22 0 73 91
c151 189 216 271 318 404 58 76 139 181 181 234 41 53 133 170 204 261 790
1010 1172 1403 1665 1716 75 47 198 113 270 143 41 18 89 38 107 46 58 26 176
63 293 92 l115 28 195 -1 195 0 90 -21 c50 -12 117 -24 150 -28 33 -3 83 -12
110 -20 28 -7 93 -19 145 -25 52 -7 124 -18 160 -25 36 -8 171 -24 300 -36
l235 -22 255 0 255 0 230 22 c127 12 259 28 295 36 36 7 92 16 125 20 173 19
613 142 875 244 148 57 185 73 195 81 6 4 21 11 35 15 63 19 388 187 532 274
61 37 320 207 408 268 654 455 1404 1269 2007 2178 221 335 251 382 433 695
120 208 250 451 352 660 31 63 73 149 93 190 20 41 63 138 96 215 33 77 72
167 86 200 15 33 39 93 55 133 15 39 42 107 59 150 49 125 123 326 144 392 8
25 33 101 55 170 23 69 53 163 67 210 14 47 36 118 49 158 13 40 24 81 24 91
0 10 7 38 16 62 8 24 24 80 34 124 10 44 25 112 34 150 53 225 100 476 115
605 5 47 14 105 20 130 5 25 15 101 21 170 6 69 18 195 27 280 l16 155 1 335
0 335 -22 230 c-13 127 -31 273 -42 325 -10 52 -22 118 -25 145 -17 132 -121
500 -194 685 -55 141 -70 175 -111 260 -271 550 -626 947 -1134 1264 -162 101
-300 169 -496 243 -428 161 -932 226 -1500 192z m-285 -939 c0 -8 -11 -18 -25
-22 -14 -4 -86 -28 -160 -53 -74 -25 -155 -52 -180 -60 -25 -7 -83 -30 -130
-50 -47 -20 -103 -42 -125 -50 -49 -16 -139 -55 -182 -78 -18 -9 -37 -17 -42
-17 -12 0 -146 -62 -371 -173 -157 -77 -507 -267 -690 -375 -182 -108 -496
-309 -660 -423 -64 -45 -410 -302 -535 -399 -655 -504 -1278 -1112 -1766
-1720 -121 -151 -138 -174 -238 -310 -104 -142 -277 -399 -331 -491 -17 -30
-49 -83 -70 -118 -92 -146 -251 -446 -316 -596 -19 -44 -41 -91 -49 -105 -7
-14 -29 -68 -49 -120 -20 -52 -43 -110 -52 -129 -53 -118 -199 -619 -224 -771
-6 -36 -17 -87 -25 -115 -8 -27 -17 -75 -20 -105 -3 -30 -15 -104 -25 -165
-27 -159 -54 -522 -54 -730 0 -209 27 -569 54 -735 10 -63 22 -144 25 -180 4
-36 15 -96 25 -135 10 -38 21 -95 25 -125 4 -30 14 -72 21 -94 17 -46 18 -82
3 -92 l-11 -6 -29 28 c-43 41 -224 379 -291 544 -112 272 -181 486 -224 690
-8 41 -24 111 -34 155 -10 44 -21 112 -25 150 -3 39 -14 111 -22 160 l-17 90
0 335 -1 335 23 170 c13 94 32 211 42 260 11 50 22 108 25 130 17 108 94 361
174 570 196 514 536 1066 1000 1625 290 349 794 854 1171 1171 226 191 597
486 676 539 13 8 67 47 121 86 174 126 485 335 666 450 43 27 94 59 113 71
135 88 728 402 939 498 33 15 68 31 79 37 10 5 35 16 55 23 20 7 74 30 121 50
163 69 199 83 420 157 151 52 269 88 284 88 7 0 42 8 77 19 254 75 571 130
734 127 l100 -1 0 -15z"/>
<path d="M23136 23283 c-184 -177 -850 -836 -1781 -1762 -1358 -1351 -2189
-2175 -2920 -2896 -369 -363 -989 -978 -1380 -1366 -390 -389 -888 -881 -1105
-1095 -638 -628 -1158 -1142 -1576 -1559 l-390 -390 -66 -85 c-271 -353 -417
-760 -418 -1163 0 -99 27 -328 45 -387 8 -25 23 -76 34 -115 99 -364 371 -776
686 -1040 356 -298 700 -456 1150 -526 65 -10 395 -10 460 0 329 52 620 171
870 356 162 120 295 258 472 487 59 77 152 196 205 264 54 68 139 178 190 246
100 132 128 168 228 294 36 44 112 143 170 218 58 76 134 175 170 221 36 46
90 115 120 155 30 39 106 138 169 218 164 212 163 211 217 282 28 36 73 94
100 130 28 36 102 133 164 215 62 83 162 213 222 290 137 177 302 391 443 574
61 79 154 200 208 269 53 70 121 158 150 196 28 37 104 135 167 216 215 278
236 305 348 453 62 81 135 177 162 212 28 36 73 94 100 130 28 36 77 100 109
142 33 43 102 134 155 203 53 69 162 211 241 315 223 293 278 365 445 580 85
110 175 226 200 258 25 32 75 98 113 145 37 48 112 146 167 217 55 72 129 168
166 215 36 47 86 112 112 145 25 33 66 87 92 120 26 33 75 97 111 143 35 46
93 120 128 165 35 45 75 98 90 117 14 20 73 96 131 169 58 74 164 211 235 305
72 94 160 209 196 256 67 87 170 222 369 485 111 146 160 210 258 338 27 34
71 91 97 127 27 36 81 106 120 155 40 50 123 158 185 240 63 83 142 187 177
233 l63 83 0 23 0 24 -44 58 c-24 33 -82 107 -128 166 -45 59 -104 136 -130
170 -25 35 -95 127 -155 205 -322 421 -628 827 -745 988 -98 134 -194 261
-203 267 -5 4 -21 8 -34 8 l-23 0 -112 -107z"/>
</g>
</svg>
