<?xml version="1.0" encoding="utf-8"?>
<!-- Generator: Adobe Illustrator 25.0.0, SVG Export Plug-In . SVG Version: 6.00 Build 0)  -->
<svg version="1.1" id="Layer_1" xmlns="http://www.w3.org/2000/svg" xmlns:xlink="http://www.w3.org/1999/xlink" x="0px" y="0px"
	 viewBox="0 0 2000 2000" style="enable-background:new 0 0 2000 2000;" xml:space="preserve">
<g>
	<path d="M1461.56,557.7c-2.42,0-4.83-0.02-7.24-0.02c-353.36,0-706.7,0-1060.05,0.02c-5.69,0-11.75-0.65-16.24,4.02
		c-1.99,2.07-3.14,4.8-3.59,7.64c-1.25,7.77,3.44,11.24,7.44,15.2c155.13,155.26,310.27,310.5,465.44,465.73
		c3.44,3.44,6.55,6.91,8.45,11.54c18.6,45.3,30.18,92.39,30.36,141.33c0.62,167.63,0.24,335.25,0.22,502.89
		c0,9.97-0.8,19.85-2.51,29.69c-0.94,5.48-3.18,9.06-8.41,11.61c-30.86,15.02-61.57,30.36-92.3,45.59
		c-57.98,28.75-115.98,57.48-173.93,86.26c-7.53,3.76-12.11,7.4-12.29,12.29c-0.06,1.46,0.41,2.9,1.21,4.13
		c3.2,4.94,8.67,7.93,14.56,7.93c4.55,0,10.61,0.01,18.01,0.02c114.09,0.12,543.94,0.36,608.38,0.39c6.28,0,11.91-4.51,12.66-10.75
		c0.73-6.1-3.19-10.39-12.04-14.78c-81.43-40.4-162.88-80.78-244.32-121.14c-31.68-15.7-31.77-15.85-31.77-51.81
		c0-165.21-0.18-330.42,0.13-495.65c0.11-50.22,10.93-98.56,29.51-145.18c2.15-5.43,5.26-9.93,9.43-14.08
		c142.2-142.18,284.32-284.41,426.45-426.67c14.06-14.08,28.08-28.19,42.15-42.26c4.45-4.43,6.4-9.53,3.98-15.56
		C1472.79,560.05,1467.82,557.7,1461.56,557.7z M1422.71,592.6c-146.63,146.74-293.26,293.5-440,440.13
		c-5.92,5.9-10.37,12.41-13.44,20.05c-20.44,50.82-31.91,103.52-31.97,158.41c-0.13,164.32-0.05,328.65-0.04,492.99
		c0,16.32,1.63,32.4,5.81,48.29c2.06,7.82,6.6,12.09,13.57,15.52c72.37,35.71,144.6,71.64,216.86,107.52
		c1.57,0.78,3.58,0.89,4.7,3.93H672.34c0.63-3.82,3.94-3.8,6.1-4.87c72.24-35.89,144.51-71.75,216.88-107.41
		c6.24-3.08,9.86-7.47,11.58-14c3.91-14.94,5.99-30.1,5.99-45.55c-0.07-168.25,0.25-336.5-0.38-504.75
		c-0.22-54.2-12.95-106.2-34.34-156.02c-2.21-5.12-5.77-9.06-9.64-12.94c-146-146.07-291.96-292.18-437.99-438.23
		c-3.15-3.15-6.95-5.64-10.44-8.43l1.52-2.21h1008.05C1426.97,587.98,1424.94,590.39,1422.71,592.6z"/>
	<path d="M1620.42,108.3c-4.19-4.25-8.7-8.19-13.06-12.27c-1.81,0-3.62,0-5.43,0c-3.48,3.25-7.05,6.4-10.41,9.76
		c-60.31,60.31-120.6,120.63-180.89,180.96c-22.58,22.6-45.19,45.16-67.71,67.82c-7.37,7.42-7.22,11.65,0.15,19.01
		c1.49,1.49,2.99,2.98,4.47,4.48c9.62,9.68,12.45,9.73,22.13,0.04c49.66-49.65,99.3-99.32,148.93-148.99
		c33.87-33.89,67.75-67.78,101.58-101.72C1627.57,120,1627.61,115.6,1620.42,108.3z"/>
	<path d="M997.7,535.67c13.87-0.23,13.87,0.14,15.47-13.84c0.17-1.5,0.37-2.99,0.5-4.49c9.94-115.08,129.66-191.65,238.57-152.6
		c70.03,25.11,116.67,87.82,120.41,161.75c0.15,2.86-1.21,7.72,1.68,8.22c6.42,1.12,13.46,1.64,19.65,0.06
		c3.8-0.97,1.63-7.02,1.5-10.7c-3.74-105.5-95.39-192.62-194.51-192.57c-46.41,0.59-82.6,9.85-114.99,30.82
		c-59.68,38.64-92.01,93.57-95.93,164.9C989.72,533.3,991.01,535.78,997.7,535.67z"/>
	<path d="M1194.13,507.03c15.39-37.26,30.67-74.56,46.19-111.77c1.93-4.62,0.1-5.44-3.75-6.59c-29.09-8.67-58.09-8.61-87.27-0.25
		c-5.93,1.7-5.9,3.89-3.75,8.81c6.88,15.71,13.28,31.62,19.87,47.46c8.83,21.24,17.65,42.47,26.57,63.94
		C1193.24,507.72,1193.94,507.48,1194.13,507.03z"/>
	<path d="M1327.45,462.81c-14.92-27.52-36.19-48.54-63.86-63.19c-3.34-1.77-4.59-1.02-5.93,2.25c-15.49,37.8-31.1,75.54-47.7,115.77
		c40.04-16.68,77.69-32.41,115.4-48C1329.31,468.02,1329.23,466.09,1327.45,462.81z"/>
	<path d="M1128.02,403.1c-1.85-4.51-3.63-5.08-7.83-2.73c-26.72,14.93-47.41,35.69-62.09,62.57c-2.43,4.44-1.16,6.04,3.05,7.66
		c9.53,3.67,18.89,7.77,28.34,11.66c28,11.53,56.01,23.04,86.02,35.38C1159.05,478.03,1143.43,440.61,1128.02,403.1z"/>
	<path d="M1339.45,532.35c5.04,0.02,5.92-2.1,5.8-6.48c-0.33-12.41-2.85-24.4-5.66-36.42c-1.55-6.65-4.3-6.96-10.02-4.5
		c-24.26,10.43-48.71,20.45-73.09,30.62c-12.03,5.02-24.05,10.04-36.85,15.38c1.6,0.79,2.08,1.23,2.55,1.23
		C1261.27,532.23,1300.36,532.17,1339.45,532.35z"/>
	<path d="M1046.29,489.11c-3.17,11.98-5.22,24.06-5.87,36.43c-0.26,4.98,1.24,6.97,6.51,6.83c11.73-0.32,23.47-0.09,35.21-0.09
		c27.61,0,55.21,0,82.82,0c0-0.57,0-1.14,0-1.71c-36.64-15.12-73.3-30.18-109.87-45.45
		C1050.15,483.06,1047.82,483.31,1046.29,489.11z"/>
	<path d="M601.19,721.59c105.05,105.14,210.1,210.29,315.16,315.43c9.34,9.35,9.84,9.32,19.37-0.21
		c95.27-95.32,190.54-190.64,285.81-285.96c10.87-10.88,21.73-21.76,32.58-32.65c2.75-2.76,6.05-5.32,4.39-10.01
		c-1.75-4.97-6.02-4.11-9.86-4.19c-1.51-0.03-3.01,0-4.52,0c-105.82,0-211.65,0-317.47,0c-106.73,0-213.46,0-320.19,0
		c-2.11,0-4.22,0.07-6.33,0c-3-0.1-5.29,1.04-6.68,3.72c-1.68,3.25-0.14,5.8,2.02,8.11C597.32,717.78,599.27,719.67,601.19,721.59z"
		/>
</g>
</svg>
