<?xml version="1.0" standalone="no"?>
<!DOCTYPE svg PUBLIC "-//W3C//DTD SVG 20010904//EN"
 "http://www.w3.org/TR/2001/REC-SVG-20010904/DTD/svg10.dtd">
<svg version="1.0" xmlns="http://www.w3.org/2000/svg"
 width="1287.000000pt" height="1300.000000pt" viewBox="0 0 1287.000000 1300.000000"
 preserveAspectRatio="xMidYMid meet">
<metadata>
Created by potrace 1.16, written by Peter Selinger 2001-2019
</metadata>
<g transform="translate(0.000000,1300.000000) scale(0.100000,-0.100000)"
fill="#000000" stroke="none">
<path d="M6050 12993 c-25 -2 -49 -8 -54 -14 -6 -5 -21 -9 -35 -9 -35 0 -195
-32 -201 -40 -3 -3 -34 -15 -70 -25 -36 -10 -67 -22 -70 -25 -3 -3 -23 -11
-45 -19 -22 -8 -42 -17 -45 -20 -3 -4 -26 -15 -53 -25 -46 -17 -49 -17 -97 0
-28 10 -50 21 -50 26 0 4 -19 13 -42 20 -24 6 -45 15 -48 18 -9 11 -125 40
-159 40 -19 0 -30 4 -26 10 4 7 -48 10 -150 10 -102 0 -154 -3 -150 -10 4 -6
-7 -10 -25 -10 -43 0 -170 -30 -195 -46 -11 -7 -37 -16 -57 -19 -21 -4 -38
-11 -38 -15 0 -4 -22 -16 -49 -26 -28 -10 -48 -21 -45 -25 2 -4 -11 -12 -30
-19 -19 -6 -46 -21 -60 -33 -14 -12 -37 -31 -52 -42 -46 -35 -194 -183 -194
-194 0 -6 -9 -16 -20 -23 -11 -7 -20 -18 -20 -25 0 -6 -8 -18 -18 -25 -10 -7
-26 -31 -36 -53 -11 -22 -26 -46 -34 -54 -12 -13 -15 -13 -24 2 -5 9 -16 17
-24 17 -8 0 -17 7 -20 15 -3 7 -26 22 -50 31 -24 9 -44 21 -44 26 0 4 -11 13
-25 18 -15 6 -49 21 -78 34 -29 13 -67 27 -84 31 -18 4 -33 10 -33 14 0 4 -25
14 -55 21 -30 7 -55 16 -55 20 0 8 -151 40 -187 40 -13 0 -23 4 -23 9 0 15
-250 34 -455 34 -206 0 -457 -18 -463 -34 -2 -5 -16 -9 -30 -9 -41 0 -206 -31
-212 -39 -3 -4 -34 -14 -70 -21 -36 -7 -67 -16 -70 -20 -3 -4 -38 -15 -77 -25
-40 -9 -73 -21 -73 -25 0 -5 -15 -12 -33 -16 -17 -3 -59 -19 -92 -34 -33 -15
-70 -30 -82 -34 -13 -4 -23 -11 -23 -15 0 -4 -16 -13 -35 -21 -19 -8 -35 -16
-35 -20 0 -3 -16 -12 -35 -19 -19 -7 -41 -18 -48 -25 -7 -8 -28 -21 -45 -30
-18 -9 -42 -25 -53 -34 -12 -9 -30 -25 -41 -34 -11 -10 -28 -20 -38 -23 -10
-3 -26 -17 -35 -31 -9 -13 -20 -22 -25 -19 -5 3 -15 -4 -24 -16 -8 -12 -27
-30 -41 -39 -15 -10 -27 -21 -28 -26 -1 -5 -5 -8 -9 -7 -4 2 -10 -6 -13 -17
-4 -11 -15 -25 -26 -31 -11 -5 -24 -21 -29 -35 -5 -13 -16 -24 -25 -24 -8 0
-15 -6 -15 -14 0 -7 -7 -19 -15 -26 -9 -7 -13 -15 -11 -17 2 -3 -5 -14 -15
-26 -40 -44 -46 -53 -58 -84 -8 -18 -17 -33 -20 -33 -4 0 -15 -24 -24 -54
l-17 -54 -53 -7 c-67 -9 -127 -26 -127 -37 0 -4 -6 -8 -12 -8 -25 0 -90 -22
-84 -28 6 -5 -47 -34 -66 -36 -4 -1 -15 -11 -23 -23 -9 -13 -21 -23 -27 -23
-14 0 -158 -145 -158 -160 0 -6 -6 -13 -14 -16 -7 -3 -22 -24 -32 -47 -10 -23
-23 -46 -29 -52 -6 -5 -17 -28 -24 -50 -8 -22 -17 -42 -21 -45 -11 -7 -40
-151 -40 -200 0 -22 -4 -40 -10 -40 -5 0 -10 -22 -10 -50 0 -27 5 -50 10 -50
6 0 10 -15 10 -32 0 -48 31 -198 41 -198 5 0 9 -6 9 -13 0 -15 29 -79 40 -87
3 -3 12 -21 20 -40 7 -19 19 -40 26 -46 23 -19 26 -58 6 -81 -10 -12 -24 -40
-32 -62 -7 -23 -17 -41 -21 -41 -4 0 -15 -24 -25 -52 -9 -29 -20 -55 -24 -58
-9 -6 -40 -144 -40 -177 0 -13 -4 -22 -9 -19 -23 15 -27 -466 -4 -483 4 -3 16
-46 26 -96 10 -49 22 -92 26 -95 5 -3 16 -29 25 -57 10 -29 21 -53 25 -53 4 0
14 -18 21 -41 8 -23 20 -43 27 -46 7 -3 13 -11 13 -19 0 -7 11 -25 25 -40 14
-15 25 -30 25 -33 0 -4 15 -23 33 -43 49 -56 57 -66 57 -78 0 -5 -4 -10 -8
-10 -4 0 -16 -26 -27 -57 -11 -32 -23 -60 -27 -63 -4 -3 -15 -42 -24 -85 -10
-44 -21 -82 -25 -85 -4 -3 -13 -52 -20 -110 -7 -58 -17 -108 -22 -112 -13 -8
-12 -468 0 -477 5 -3 15 -53 22 -111 7 -58 17 -106 22 -108 5 -2 9 -14 9 -27
0 -33 30 -159 39 -165 4 -3 16 -35 26 -72 10 -38 21 -68 25 -68 4 0 13 -20 19
-45 6 -25 15 -45 19 -45 5 0 16 -22 26 -50 10 -27 22 -50 26 -50 5 0 11 -13
15 -29 3 -15 14 -37 24 -48 11 -11 27 -35 36 -54 10 -19 24 -38 31 -42 8 -4
14 -13 14 -19 0 -6 7 -18 15 -27 54 -60 75 -85 75 -90 0 -15 88 -99 174 -166
21 -16 47 -37 57 -46 11 -9 34 -23 51 -30 18 -7 40 -21 49 -30 9 -9 31 -20 48
-24 17 -4 31 -11 31 -15 0 -5 18 -15 40 -21 38 -11 40 -14 40 -51 0 -21 5 -38
10 -38 6 0 10 -13 10 -28 0 -42 28 -142 45 -159 8 -8 15 -21 15 -28 0 -7 6
-20 13 -27 7 -7 20 -26 30 -41 22 -34 43 -59 79 -95 16 -14 28 -36 28 -48 0
-24 -20 -86 -30 -94 -3 -3 -15 -36 -25 -75 -10 -38 -22 -72 -26 -75 -5 -4 -17
-53 -26 -110 -10 -58 -22 -108 -27 -112 -13 -9 -13 -287 0 -296 5 -4 17 -37
25 -74 17 -73 15 -78 -43 -109 -30 -16 -74 -63 -96 -103 -9 -17 -22 -34 -28
-38 -6 -4 -17 -28 -24 -53 -7 -25 -16 -45 -20 -45 -13 0 -30 -112 -30 -203 0
-92 17 -217 29 -217 4 0 13 -20 20 -46 7 -25 19 -51 25 -57 6 -7 19 -28 30
-46 24 -44 103 -122 141 -141 17 -8 36 -21 43 -27 7 -7 24 -16 38 -19 17 -4
24 -13 24 -31 0 -54 -23 -268 -30 -273 -3 -3 -15 -88 -25 -190 -10 -102 -22
-187 -25 -190 -4 -3 -15 -88 -25 -190 -10 -102 -22 -187 -26 -190 -4 -3 -13
-61 -20 -130 -7 -69 -16 -127 -19 -130 -4 -3 -13 -68 -21 -145 l-14 -140 -32
-3 c-18 -2 -33 -7 -33 -12 0 -4 -23 -13 -50 -20 -28 -7 -50 -16 -50 -21 0 -5
-14 -16 -31 -25 -17 -9 -46 -31 -65 -49 -18 -18 -35 -31 -38 -28 -2 3 -13 -8
-23 -24 -9 -15 -26 -34 -35 -41 -10 -7 -18 -19 -18 -27 0 -8 -6 -18 -13 -22
-7 -4 -21 -26 -32 -48 -11 -22 -23 -42 -26 -45 -3 -3 -12 -23 -19 -45 -7 -22
-17 -42 -21 -45 -10 -7 -39 -140 -39 -181 0 -18 -4 -28 -10 -24 -6 4 -10 -45
-10 -139 0 -91 4 -146 10 -146 6 0 10 -15 10 -32 0 -51 25 -145 43 -163 10 -9
20 -27 23 -40 3 -13 12 -26 20 -29 8 -3 14 -12 14 -20 0 -9 11 -23 25 -32 13
-9 27 -24 30 -35 4 -10 11 -19 17 -19 5 0 19 -11 30 -25 11 -14 26 -25 34 -25
8 0 14 -5 14 -10 0 -6 17 -18 37 -28 21 -9 41 -22 46 -29 4 -6 23 -17 43 -23
20 -7 45 -21 55 -31 11 -11 26 -19 34 -19 8 0 15 -4 15 -8 0 -4 29 -16 65 -27
36 -10 65 -22 65 -26 0 -4 32 -15 70 -25 39 -10 70 -21 70 -25 0 -4 23 -12 50
-19 27 -7 50 -16 50 -20 0 -5 34 -16 75 -26 41 -10 75 -21 75 -24 0 -4 36 -15
80 -25 44 -10 80 -21 80 -25 0 -4 38 -16 85 -26 47 -10 85 -21 85 -25 0 -4 29
-12 65 -19 36 -7 65 -16 65 -20 0 -4 38 -15 85 -25 47 -10 85 -21 85 -25 0 -4
47 -15 105 -25 58 -10 105 -21 105 -25 0 -4 35 -13 77 -20 43 -7 80 -16 83
-20 3 -4 50 -15 105 -25 55 -10 102 -21 105 -24 5 -7 202 -41 239 -41 11 0 21
-4 21 -9 0 -4 62 -17 138 -27 75 -10 139 -21 142 -24 3 -4 59 -12 125 -20 66
-7 122 -16 125 -20 5 -7 143 -24 310 -37 41 -3 77 -9 80 -13 5 -8 434 -40 532
-40 36 0 58 -4 61 -12 6 -19 1458 -19 1465 0 2 8 25 12 65 12 108 0 541 31
562 40 11 5 49 11 85 13 148 12 315 31 320 37 3 4 65 13 138 20 72 7 132 16
132 20 0 4 68 15 150 25 83 10 150 21 150 24 0 4 63 15 140 26 76 10 137 21
135 25 -2 4 50 15 115 24 66 10 120 21 120 26 0 4 41 13 90 19 50 7 90 16 90
20 0 4 52 16 115 26 63 10 115 22 115 25 0 4 45 15 100 25 55 10 100 22 100
26 0 3 30 12 68 19 37 7 69 16 72 20 3 3 46 15 95 25 50 10 92 21 95 25 3 4
43 15 90 24 47 10 90 22 95 26 6 4 45 15 88 24 42 10 75 21 73 25 -3 4 26 13
64 20 38 7 70 16 72 20 2 4 34 15 72 24 39 10 72 21 75 25 4 5 33 16 65 25 33
9 62 20 65 25 3 5 23 15 44 23 20 7 37 16 37 20 0 3 20 14 45 25 25 10 45 22
45 26 0 5 16 16 35 25 19 9 32 20 29 25 -3 4 1 8 9 8 7 0 38 27 68 61 30 33
62 70 72 81 11 11 26 40 34 64 8 24 18 44 23 44 35 0 49 448 18 565 -18 68
-58 178 -67 185 -4 3 -12 17 -18 32 -7 16 -17 28 -23 28 -6 0 -9 4 -6 9 3 5
-1 14 -9 21 -8 7 -15 17 -15 22 0 9 -12 23 -77 88 -44 45 -70 66 -108 85 -22
11 -46 25 -53 32 -7 7 -28 15 -47 19 -19 3 -35 10 -35 14 0 5 -29 12 -65 15
-37 4 -65 12 -66 19 0 6 -2 22 -4 36 -1 14 -8 148 -15 298 -7 149 -17 272 -22
272 -4 0 -8 6 -8 14 0 16 21 20 180 37 63 6 117 15 120 19 3 4 74 15 158 25
83 10 152 22 152 26 0 5 10 9 21 9 35 0 234 33 239 40 3 4 40 13 83 20 42 7
77 17 77 21 0 5 8 9 18 9 25 0 166 33 172 41 3 3 42 14 88 24 45 10 82 21 82
25 0 4 17 10 38 14 20 3 49 12 64 20 15 8 53 22 85 31 32 9 60 20 63 24 3 4
31 15 63 26 31 11 57 22 57 25 0 4 18 12 40 19 22 6 40 16 40 21 0 6 7 10 15
10 15 0 86 30 95 41 3 3 26 14 52 25 27 10 48 22 48 25 0 3 19 15 42 25 24 10
51 27 60 37 10 9 25 17 34 17 8 0 13 4 9 9 -3 5 3 12 14 16 11 3 43 27 71 53
28 26 67 61 86 77 59 49 98 90 118 121 11 16 25 33 33 37 7 4 13 13 13 18 0 6
12 24 28 39 47 48 58 64 71 98 8 17 17 32 22 32 5 0 15 16 23 35 8 19 19 35
23 35 5 0 15 16 22 35 7 19 16 35 21 35 4 0 16 22 26 50 10 27 21 50 25 50 5
0 16 25 25 55 10 30 21 55 25 55 3 0 12 20 19 45 7 25 16 45 19 45 4 0 16 28
26 63 10 34 25 68 32 75 7 7 13 21 13 30 0 28 24 122 31 122 4 0 15 44 25 97
10 54 21 100 25 103 4 3 13 47 20 98 7 50 16 92 19 92 4 0 15 60 25 133 10 72
22 134 26 137 8 5 39 317 39 392 0 28 5 48 13 50 16 6 18 985 1 996 -6 4 -14
50 -17 102 -10 137 -30 304 -37 310 -4 3 -15 60 -25 128 -10 67 -22 122 -25
122 -4 0 -13 34 -20 75 -7 41 -16 75 -19 75 -4 0 -15 43 -26 95 -10 52 -21 95
-25 95 -3 0 -14 34 -24 75 -10 41 -21 75 -25 75 -4 0 -15 32 -25 70 -10 39
-22 70 -25 70 -4 0 -13 23 -20 50 -7 28 -16 50 -20 50 -4 0 -16 27 -26 60 -10
33 -21 60 -25 60 -3 0 -14 25 -24 55 -9 30 -21 55 -25 55 -4 0 -14 18 -21 40
-7 22 -17 40 -22 40 -4 0 -8 9 -8 19 0 11 -4 22 -9 26 -5 3 -12 19 -16 35 -4
17 -10 28 -14 25 -5 -2 -13 13 -20 35 -6 21 -17 45 -24 52 -7 7 -19 29 -26 48
-8 19 -19 40 -26 45 -6 6 -17 25 -24 43 -7 17 -17 32 -21 32 -5 0 -16 18 -26
40 -10 22 -21 40 -24 40 -4 0 -15 18 -25 39 -10 22 -24 42 -31 45 -8 3 -14 10
-14 16 0 13 -193 210 -206 210 -4 0 -17 9 -29 20 -47 45 -63 57 -98 73 -20 10
-37 22 -37 26 0 4 -19 16 -42 27 -24 10 -49 24 -56 31 -7 7 -31 18 -52 24 -22
7 -40 16 -40 20 0 5 -18 14 -40 20 -21 7 -37 16 -34 21 3 5 2 8 -3 6 -12 -3
-127 33 -133 42 -3 4 -54 16 -115 26 -60 10 -113 23 -117 28 -10 14 -411 12
-416 -2 -2 -7 -18 -12 -37 -12 -41 0 -204 -27 -230 -39 -30 -13 -125 -41 -141
-41 -8 0 -14 -4 -14 -9 0 -5 -18 -12 -40 -16 -22 -4 -46 -12 -53 -19 -6 -6
-38 -20 -69 -31 -32 -10 -58 -22 -58 -26 0 -4 -23 -15 -50 -25 -27 -10 -50
-21 -50 -24 0 -4 -19 -15 -42 -26 -24 -10 -52 -27 -62 -36 -11 -10 -26 -18
-33 -18 -7 0 -13 -3 -13 -7 0 -5 -11 -13 -24 -19 -23 -11 -25 -10 -31 27 -4
22 -11 39 -15 39 -5 0 -14 16 -20 36 -7 19 -18 38 -26 41 -27 10 -13 32 29 45
23 6 44 15 47 19 3 3 22 12 43 18 20 7 37 16 37 20 0 4 19 16 43 26 23 10 48
27 55 37 7 10 18 18 23 18 6 0 37 28 69 63 84 88 89 95 102 122 6 14 14 25 18
25 4 0 15 20 24 45 10 25 21 45 25 45 5 0 16 29 26 65 9 36 20 65 24 65 4 0 8
6 9 13 0 6 5 39 11 72 20 109 6 375 -19 375 -4 0 -16 29 -25 65 -10 36 -21 65
-25 65 -3 0 -14 19 -24 41 -18 39 -29 55 -76 104 -11 12 -20 25 -20 30 0 6
-16 24 -36 40 -20 17 -46 40 -58 53 -13 12 -27 22 -32 22 -5 0 -22 11 -38 25
-16 14 -35 25 -42 25 -7 0 -21 8 -31 19 -10 10 -36 24 -58 31 -22 7 -42 16
-45 21 -10 15 -163 39 -253 39 l-94 0 -6 123 c-7 118 -18 191 -36 232 -5 11
-17 41 -27 68 -9 26 -20 47 -24 47 -4 0 -12 18 -19 40 -6 22 -16 40 -21 40 -5
0 -17 17 -27 37 -9 21 -24 45 -33 55 -41 48 -176 183 -183 183 -5 0 -16 9 -25
20 -9 12 -30 27 -47 35 -16 8 -32 18 -35 21 -9 12 -69 39 -85 39 -8 0 -15 4
-15 8 0 10 -93 42 -120 42 -10 0 -20 4 -22 9 -4 13 -143 31 -231 31 -86 0
-198 -15 -206 -28 -3 -5 -41 -14 -84 -21 -61 -10 -81 -10 -93 -1 -7 7 -14 16
-14 21 0 11 -16 30 -96 114 -34 35 -60 66 -57 69 3 2 -8 13 -23 22 -15 10 -47
37 -70 59 -24 22 -57 51 -74 65 -17 14 -38 33 -48 43 -9 9 -21 17 -27 17 -5 0
-26 14 -45 30 -19 16 -41 30 -48 30 -7 0 -15 6 -18 14 -3 7 -23 19 -45 26 -21
7 -39 16 -39 20 0 4 -19 15 -42 26 -24 10 -49 24 -56 31 -7 7 -31 18 -52 24
-22 7 -40 16 -40 20 0 5 -25 16 -55 24 -30 9 -55 20 -55 25 0 4 -18 11 -40 15
-22 4 -46 12 -53 19 -6 6 -49 20 -94 31 -46 11 -83 23 -83 26 0 4 -53 14 -117
24 -65 9 -127 21 -138 27 -20 12 -445 20 -535 11z m598 -529 c4 -6 52 -18 107
-27 54 -10 102 -21 105 -26 3 -4 32 -15 64 -24 33 -9 62 -21 65 -25 7 -11 51
-27 82 -31 5 0 7 -5 4 -11 -3 -5 0 -10 8 -10 14 0 78 -29 87 -39 3 -3 21 -15
40 -25 19 -11 41 -25 47 -30 7 -6 25 -20 39 -31 15 -11 40 -32 55 -47 15 -16
31 -28 36 -28 4 0 23 -16 42 -35 19 -19 37 -35 41 -35 4 0 13 -14 20 -30 7
-17 21 -35 31 -41 11 -5 19 -15 19 -22 0 -7 11 -25 25 -41 14 -16 25 -32 25
-36 0 -4 9 -17 20 -30 11 -13 20 -28 20 -35 0 -6 8 -20 19 -31 10 -11 26 -47
36 -80 9 -32 20 -61 25 -64 9 -6 40 -144 40 -181 0 -29 21 -52 28 -31 2 7 17
19 33 27 16 9 29 20 29 25 0 18 188 197 221 210 19 8 36 17 39 21 12 16 196
41 260 35 77 -8 140 -24 140 -35 0 -4 18 -14 40 -21 21 -7 38 -16 35 -20 -2
-3 12 -14 30 -24 19 -11 32 -22 30 -26 -3 -4 4 -10 15 -13 11 -3 24 -17 30
-31 5 -14 14 -26 19 -26 6 0 18 -17 28 -37 9 -21 23 -44 29 -50 7 -7 15 -26
19 -43 4 -17 11 -28 16 -24 5 3 9 -1 9 -8 1 -7 5 -46 9 -87 9 -77 -3 -213 -20
-219 -12 -5 -12 -57 0 -80 5 -9 16 -43 25 -75 10 -31 28 -68 42 -82 13 -13 24
-29 24 -35 0 -5 6 -10 13 -10 7 0 22 -8 33 -18 54 -49 97 -66 177 -66 54 -1
80 3 86 12 17 28 220 30 241 3 3 -4 21 -13 40 -21 19 -7 42 -19 50 -26 40 -33
100 -94 100 -102 0 -5 9 -19 20 -32 11 -13 24 -39 30 -59 15 -56 12 -181 -6
-235 -20 -59 -63 -136 -75 -136 -5 0 -9 -6 -9 -14 0 -17 -109 -126 -127 -126
-7 0 -13 -4 -13 -10 0 -5 -16 -17 -35 -26 -19 -9 -35 -19 -35 -23 0 -4 -17
-13 -37 -20 -21 -8 -40 -17 -43 -20 -6 -9 -107 -41 -126 -41 -8 0 -14 -4 -14
-9 0 -5 -25 -13 -55 -16 -34 -5 -55 -12 -55 -20 0 -23 33 -160 41 -170 4 -6
13 -42 20 -80 7 -39 16 -72 19 -75 33 -25 52 -571 26 -739 -9 -58 -20 -107
-25 -110 -4 -3 -11 -23 -15 -43 -4 -21 -13 -44 -21 -52 -8 -8 -15 -19 -15 -25
0 -17 -34 -85 -52 -105 -10 -11 -18 -26 -18 -33 0 -7 -9 -17 -20 -23 -11 -6
-20 -17 -20 -25 0 -7 -20 -28 -45 -46 -25 -18 -45 -36 -45 -40 0 -5 -16 -16
-35 -25 -19 -9 -35 -19 -35 -23 0 -4 -17 -13 -37 -20 -46 -17 -75 -45 -93 -91
-8 -19 -18 -38 -22 -41 -25 -17 -24 -249 1 -257 6 -2 11 -9 11 -16 0 -16 69
-86 85 -86 7 0 18 -26 25 -57 7 -32 16 -60 20 -63 8 -5 40 -158 40 -189 0 -11
5 -21 12 -23 16 -6 18 -395 2 -406 -5 -4 -19 -44 -29 -89 -10 -46 -22 -83 -26
-83 -4 0 -13 -16 -19 -35 -6 -19 -16 -35 -21 -35 -4 0 -16 -14 -24 -31 -9 -16
-23 -38 -32 -48 -46 -53 -85 -91 -93 -91 -5 0 -15 -8 -22 -18 -7 -9 -32 -26
-55 -36 -24 -11 -43 -22 -43 -26 0 -7 -94 -40 -115 -40 -7 0 -15 -4 -17 -9 -5
-14 -147 -31 -257 -31 -99 0 -262 17 -271 29 -3 3 -36 14 -75 24 -38 10 -72
21 -75 26 -3 4 -31 16 -62 26 -32 10 -58 21 -58 26 0 4 -16 13 -35 19 -19 6
-35 15 -35 20 0 4 -18 15 -40 24 -22 9 -40 20 -40 26 0 5 -6 10 -13 10 -8 0
-22 9 -32 20 -10 11 -21 18 -24 15 -4 -2 -16 10 -26 26 -11 16 -25 29 -32 29
-7 0 -27 16 -46 35 -19 19 -39 35 -45 35 -6 0 -16 -25 -23 -55 -7 -30 -15 -55
-19 -55 -4 0 -13 -20 -19 -45 -6 -25 -16 -45 -21 -45 -6 0 -10 -6 -10 -13 0
-15 -29 -79 -40 -87 -3 -3 -14 -22 -23 -42 -10 -21 -21 -38 -25 -38 -4 0 -16
-18 -26 -40 -11 -22 -22 -40 -26 -40 -4 0 -34 -27 -66 -60 -32 -33 -65 -60
-71 -60 -7 0 -13 -4 -13 -10 0 -5 -15 -17 -32 -26 -18 -9 -35 -20 -38 -24 -10
-16 -129 -40 -193 -40 -76 0 -162 16 -180 34 -6 6 -28 18 -47 26 -50 20 -226
200 -235 239 -4 17 -10 31 -15 31 -17 0 -34 118 -34 240 0 121 18 270 33 270
4 0 16 27 26 60 10 32 21 57 26 55 4 -3 11 5 15 17 10 33 136 154 178 172 48
20 103 79 116 125 12 45 13 126 1 169 -12 39 -59 92 -83 92 -9 0 -23 6 -30 14
-8 7 -25 17 -38 21 -14 4 -33 16 -43 26 -10 11 -21 19 -25 19 -4 0 -25 16 -47
35 -22 19 -42 35 -45 35 -3 0 -14 15 -25 33 -10 17 -27 38 -37 45 -10 7 -18
19 -18 26 0 7 -9 23 -20 35 -10 13 -24 38 -30 57 -7 19 -15 34 -19 34 -5 0
-14 28 -21 63 -7 34 -18 65 -24 69 -7 5 -11 60 -11 156 0 128 2 151 18 166 9
10 17 24 17 31 0 7 6 20 14 28 15 14 46 97 46 122 0 7 6 15 13 17 17 6 17 208
-1 228 -6 8 -21 26 -31 40 -15 20 -28 25 -64 25 -47 0 -94 -19 -115 -47 -7
-10 -18 -18 -24 -18 -6 0 -21 -10 -33 -22 -13 -13 -35 -32 -50 -43 -15 -11
-35 -27 -44 -36 -18 -16 -51 -33 -62 -31 -3 0 -18 -10 -33 -23 -16 -13 -43
-29 -62 -35 -19 -7 -34 -15 -34 -19 0 -4 -18 -14 -40 -21 -22 -7 -40 -17 -40
-21 0 -4 -22 -15 -50 -25 -27 -10 -50 -22 -50 -26 0 -4 -6 -8 -14 -8 -18 0
-120 -32 -126 -40 -3 -3 -42 -14 -87 -25 -45 -10 -80 -21 -78 -25 2 -4 -40
-13 -95 -20 -55 -7 -97 -16 -95 -20 5 -9 -74 -17 -240 -26 -119 -6 -375 11
-385 25 -3 4 -40 14 -82 21 -43 7 -78 16 -78 20 0 4 -27 13 -61 20 -33 7 -66
18 -72 24 -7 6 -38 20 -69 30 -32 11 -58 23 -58 27 0 4 -12 11 -27 17 -16 5
-38 18 -50 28 -12 11 -47 34 -78 53 -30 18 -55 36 -55 40 0 4 -16 15 -35 25
-19 11 -35 22 -35 25 0 3 -47 55 -105 114 -58 60 -105 115 -105 123 0 8 -7 17
-15 21 -9 3 -22 18 -31 34 -19 38 -30 37 -45 -6 -7 -19 -16 -35 -20 -35 -4 0
-15 -33 -24 -72 -10 -40 -21 -75 -25 -78 -4 -3 -15 -41 -25 -85 -9 -44 -21
-84 -25 -90 -4 -5 -15 -31 -25 -57 -10 -27 -21 -48 -24 -48 -3 0 -13 -15 -20
-32 -8 -18 -23 -39 -33 -46 -10 -7 -18 -19 -18 -25 0 -23 -71 -68 -125 -80
-30 -6 -55 -15 -55 -19 0 -10 -197 -11 -202 0 -1 4 -34 15 -71 24 -38 10 -75
25 -83 33 -9 8 -26 18 -40 21 -13 3 -24 10 -24 15 0 5 -8 12 -18 16 -24 9
-132 122 -132 139 0 8 -6 17 -14 20 -12 4 -26 35 -30 65 -1 3 -14 20 -31 37
-51 54 -116 54 -174 0 l-34 -31 8 -146 c4 -80 11 -149 17 -152 14 -9 14 -372
0 -377 -7 -2 -12 -16 -13 -30 0 -33 -33 -135 -40 -128 -3 3 -11 -10 -18 -30
-7 -20 -30 -52 -52 -72 -21 -20 -39 -40 -39 -44 0 -5 14 -8 31 -8 16 0 28 -4
25 -8 -3 -5 22 -14 54 -20 33 -7 66 -19 74 -27 8 -8 19 -15 25 -15 6 0 16 -9
23 -20 7 -11 18 -20 24 -20 14 0 84 -70 84 -84 0 -6 9 -17 20 -24 11 -7 20
-18 20 -26 0 -7 9 -23 20 -36 11 -13 23 -35 27 -49 3 -14 10 -29 15 -32 11 -7
38 -104 38 -136 0 -12 6 -23 13 -25 9 -4 12 -45 12 -163 0 -118 -3 -159 -12
-162 -7 -3 -13 -14 -13 -24 0 -30 -31 -119 -41 -119 -5 0 -9 -6 -9 -12 0 -7
-16 -28 -35 -47 -19 -19 -35 -37 -35 -41 0 -4 -18 -15 -40 -26 -22 -10 -40
-22 -40 -26 0 -5 -9 -8 -20 -8 -22 0 -22 -2 25 -55 27 -31 44 -57 51 -77 4
-10 10 -18 15 -18 4 0 16 -17 26 -37 9 -21 23 -44 30 -51 7 -7 13 -20 13 -27
0 -7 6 -20 13 -27 15 -15 47 -103 47 -129 0 -10 5 -19 10 -21 6 -2 15 -53 22
-113 9 -86 8 -136 -2 -227 -7 -65 -16 -118 -20 -118 -3 0 -15 -45 -25 -100
-10 -55 -22 -100 -26 -100 -4 0 -12 -39 -19 -86 l-12 -85 31 -31 c17 -17 31
-34 31 -38 0 -5 34 -43 76 -87 102 -105 101 -104 108 -139 17 -76 -42 -183
-109 -200 -14 -3 -22 -10 -19 -15 3 -5 -35 -9 -86 -9 -86 0 -239 -24 -250 -39
-3 -4 -24 -13 -47 -20 -23 -8 -44 -20 -47 -27 -3 -8 -11 -14 -18 -14 -16 0
-67 -56 -78 -85 -4 -11 -11 -48 -15 -82 -4 -35 -10 -63 -14 -63 -4 0 -13 -19
-20 -42 -15 -48 -62 -97 -106 -109 -39 -12 -117 -11 -148 0 -13 5 -39 23 -57
39 -26 25 -34 40 -38 80 -4 47 17 112 36 112 4 0 16 17 27 37 18 34 34 54 86
108 10 12 19 26 19 32 0 6 6 13 14 16 7 3 19 26 27 51 7 25 16 46 20 46 11 0
18 83 12 143 -3 31 -9 54 -13 52 -4 -2 -10 48 -14 111 -8 128 2 334 15 334 5
0 9 11 9 24 0 38 30 200 39 206 4 3 13 31 21 63 7 31 16 57 20 57 3 0 14 27
24 60 18 59 18 61 0 83 -11 12 -27 28 -36 35 -10 7 -18 19 -18 26 0 8 -6 16
-13 19 -6 2 -18 26 -26 53 -8 27 -19 52 -25 56 -15 10 -12 441 3 446 6 2 11
23 11 47 0 35 -6 50 -27 72 -27 26 -32 27 -129 28 -65 0 -106 4 -116 12 -8 7
-18 10 -21 6 -4 -3 -9 1 -12 9 -4 9 -26 24 -51 34 -24 10 -44 21 -44 25 0 4
-13 12 -30 19 -16 7 -30 16 -30 20 0 4 -8 10 -17 14 -27 8 -56 29 -71 49 -7 9
-18 17 -23 17 -6 0 -32 23 -59 50 -27 28 -53 50 -60 50 -6 0 -9 4 -6 8 3 5
-15 26 -39 48 -25 21 -45 44 -45 51 0 6 -8 18 -18 25 -10 7 -27 29 -38 48 -10
19 -24 38 -30 42 -6 4 -16 25 -24 48 -7 22 -17 40 -21 40 -4 0 -12 12 -18 28
-7 15 -20 43 -31 62 -10 19 -22 52 -25 73 -4 20 -10 37 -14 37 -9 0 -41 172
-41 222 0 20 -4 40 -10 43 -6 3 -10 50 -10 106 0 59 4 99 10 99 6 0 10 19 10
43 0 50 30 220 40 227 4 3 15 33 25 68 10 34 22 62 25 62 4 0 12 18 19 40 6
22 16 40 20 40 5 0 16 18 25 40 9 22 19 40 24 40 4 0 16 17 27 37 11 21 28 45
38 55 9 10 17 24 17 32 0 8 7 21 15 29 35 35 42 239 9 272 -8 7 -14 18 -14 23
0 6 -18 25 -40 43 -22 18 -40 38 -40 44 0 5 -9 16 -20 23 -11 7 -20 18 -20 25
0 7 -9 20 -20 30 -11 9 -20 23 -20 31 0 8 -6 19 -13 23 -13 8 -47 107 -47 136
0 10 -4 17 -9 17 -5 0 -14 46 -21 103 -10 80 -11 126 -1 217 6 63 16 117 21
118 6 2 10 11 10 19 0 25 33 123 41 123 4 0 13 16 19 35 6 19 15 35 20 35 5 0
17 17 27 37 21 46 139 163 190 189 61 31 69 42 46 63 -10 10 -40 26 -65 35
-26 10 -55 27 -64 37 -9 11 -20 19 -24 19 -13 0 -120 111 -138 143 -42 74 -51
93 -52 115 0 12 -4 22 -10 22 -6 0 -10 37 -10 90 0 50 4 90 8 90 4 0 14 20 21
45 7 25 22 50 32 56 11 5 19 14 19 20 0 13 55 69 67 69 5 0 16 9 25 19 9 11
36 26 60 32 24 7 46 18 50 23 10 15 187 14 196 -1 4 -6 20 -15 35 -18 16 -4
34 -16 40 -26 12 -20 47 -26 47 -9 0 6 6 10 14 10 22 0 28 27 36 143 4 60 11
112 16 115 5 4 18 33 28 65 11 31 23 57 27 57 4 0 12 14 18 30 5 17 14 30 19
30 5 0 12 8 16 18 8 26 29 54 54 75 12 10 22 24 23 30 0 7 15 24 32 40 18 15
52 45 76 68 24 22 57 47 73 57 15 9 28 19 28 23 0 4 14 12 30 19 17 7 30 16
30 21 0 5 18 16 40 25 22 9 40 20 40 24 0 4 21 15 47 25 27 10 54 25 61 32 7
7 24 16 38 19 13 3 24 9 24 13 0 5 25 14 56 21 31 8 61 19 68 25 6 6 49 19 96
30 47 10 87 22 90 26 7 9 230 39 296 39 30 0 54 5 54 10 0 6 35 10 84 10 47 0
88 -4 91 -10 3 -5 31 -10 62 -10 68 0 266 -29 273 -39 3 -5 36 -15 74 -24 38
-9 72 -19 75 -24 3 -4 32 -17 64 -27 31 -11 57 -23 57 -27 0 -5 11 -11 25 -15
14 -3 29 -11 33 -18 4 -6 26 -20 49 -30 23 -10 44 -25 47 -32 3 -8 12 -14 20
-14 8 0 21 -8 28 -18 7 -11 22 -24 34 -30 22 -12 184 -171 184 -181 0 -3 14
-22 30 -41 16 -19 30 -38 30 -41 0 -4 25 -14 56 -24 89 -28 191 -9 241 44 32
34 43 82 43 194 0 53 4 97 8 97 5 0 14 29 21 65 7 36 18 71 25 78 6 7 18 25
26 41 8 17 23 39 33 50 70 80 117 125 147 142 19 10 41 25 48 31 7 7 24 16 38
19 13 3 21 10 18 15 -3 5 -2 9 3 10 35 3 129 33 135 43 10 15 306 15 316 0 4
-6 28 -16 54 -23 45 -13 70 -27 109 -63 11 -10 23 -18 28 -18 15 0 121 -110
121 -125 0 -8 5 -15 11 -15 5 0 17 -16 25 -35 8 -19 20 -35 27 -35 6 0 27 16
46 35 19 19 40 35 48 35 8 0 12 4 8 9 -3 6 5 15 17 22 13 7 29 20 36 31 7 10
19 18 27 18 8 0 18 6 22 13 4 7 27 21 50 32 24 11 43 23 43 27 0 3 16 12 35
18 19 6 35 15 35 19 0 4 27 16 60 26 33 10 60 21 60 25 0 4 44 15 98 25 53 11
99 22 102 26 9 13 90 17 323 15 138 -1 231 -6 235 -12z m4352 -3203 c0 -4 26
-11 59 -14 63 -7 153 -28 161 -38 3 -3 29 -14 58 -23 28 -10 52 -21 52 -25 0
-4 18 -14 40 -21 23 -8 44 -18 48 -24 4 -6 20 -18 37 -26 30 -15 35 -19 92
-68 18 -15 46 -38 62 -52 17 -13 31 -29 31 -35 0 -6 12 -22 28 -36 37 -34 56
-60 72 -96 8 -18 17 -30 21 -27 4 2 13 -12 19 -31 6 -19 17 -38 24 -42 6 -5
20 -27 30 -50 11 -24 22 -43 26 -43 3 0 12 -16 19 -35 7 -19 16 -35 21 -35 4
0 16 -22 26 -50 10 -27 21 -50 26 -50 4 0 13 -19 19 -42 7 -24 18 -50 24 -58
7 -8 20 -36 30 -62 10 -27 21 -48 25 -48 4 0 11 -16 14 -35 4 -19 13 -40 20
-47 7 -7 21 -46 30 -86 10 -39 22 -72 26 -72 5 0 16 -35 26 -77 9 -43 20 -80
24 -83 3 -3 13 -27 20 -55 7 -27 17 -52 20 -55 4 -3 15 -48 25 -100 10 -52 21
-97 24 -100 7 -6 41 -203 41 -237 0 -13 4 -23 8 -23 8 0 42 -291 42 -357 0
-17 6 -33 13 -35 9 -4 12 -106 12 -466 0 -355 -3 -464 -12 -473 -7 -7 -13 -31
-13 -54 0 -74 -32 -360 -41 -363 -5 -2 -9 -16 -9 -30 0 -44 -32 -247 -39 -252
-4 -3 -16 -53 -26 -112 -10 -60 -22 -108 -26 -108 -5 0 -14 -27 -20 -59 -7
-33 -16 -58 -21 -55 -4 3 -8 -3 -8 -12 0 -20 -32 -127 -40 -134 -3 -3 -14 -33
-25 -67 -10 -35 -22 -63 -26 -63 -5 0 -14 -19 -21 -42 -6 -24 -18 -47 -25 -51
-7 -4 -13 -15 -13 -22 0 -8 -8 -23 -17 -33 -10 -9 -27 -36 -37 -60 -10 -23
-22 -42 -26 -42 -4 0 -10 -8 -14 -17 -8 -25 -29 -57 -43 -66 -7 -4 -13 -13
-13 -19 0 -6 -9 -20 -20 -32 -121 -129 -189 -196 -199 -196 -6 0 -11 -4 -11
-10 0 -5 -16 -17 -35 -26 -19 -9 -35 -20 -35 -24 0 -4 -18 -15 -40 -25 -22
-10 -40 -21 -40 -25 0 -4 -18 -13 -39 -20 -22 -7 -42 -18 -44 -24 -3 -7 -23
-18 -46 -26 -23 -7 -41 -17 -41 -21 0 -4 -25 -16 -55 -25 -30 -10 -55 -21 -55
-25 0 -3 -29 -15 -65 -25 -36 -10 -65 -22 -65 -26 0 -4 -20 -13 -45 -19 -25
-6 -45 -15 -45 -20 0 -4 -36 -16 -80 -25 -44 -10 -80 -21 -80 -24 0 -4 -40
-15 -90 -26 -49 -10 -90 -21 -90 -25 0 -3 -36 -12 -80 -19 -44 -7 -80 -16 -80
-19 0 -4 -54 -15 -120 -26 -66 -10 -120 -21 -120 -25 0 -3 -70 -15 -155 -25
-85 -10 -155 -22 -155 -25 0 -4 -33 -10 -72 -14 -40 -3 -97 -9 -125 -13 l-53
-6 0 132 c0 73 -4 130 -8 127 -9 -5 -27 452 -18 461 2 2 72 7 155 10 83 3 151
9 151 13 0 4 35 10 78 13 118 9 262 30 257 37 -2 3 30 12 70 19 41 8 73 16 71
20 -3 3 30 15 72 25 43 10 79 22 82 25 3 4 32 15 64 25 33 10 66 24 74 32 7 8
22 14 32 14 11 0 23 6 27 13 4 8 30 22 58 33 27 10 57 26 67 36 10 10 25 18
33 18 7 0 18 6 22 13 4 6 24 21 43 31 19 11 39 25 43 33 4 7 14 13 21 13 8 0
21 11 30 25 9 14 21 25 27 25 21 0 229 223 229 245 0 5 9 16 20 23 11 7 20 18
20 25 0 7 9 18 20 25 11 7 20 18 20 26 0 7 11 25 25 40 14 15 28 38 31 51 3
14 10 25 14 25 5 0 14 16 21 34 7 19 16 33 19 31 4 -2 16 21 26 53 10 31 24
62 30 69 6 6 17 32 24 57 7 25 16 46 20 46 4 0 16 30 26 68 10 37 21 69 25 72
4 3 12 32 19 65 7 33 16 62 20 65 8 6 40 175 40 215 0 14 4 24 9 21 10 -7 18
53 32 264 21 300 -2 1087 -32 1098 -5 2 -9 14 -9 27 0 35 -29 198 -39 220 -5
11 -15 45 -22 75 -6 30 -15 57 -18 60 -4 3 -15 31 -24 63 -10 31 -22 57 -26
57 -4 0 -14 25 -21 56 -8 31 -19 61 -25 68 -6 6 -17 31 -25 55 -8 24 -19 45
-26 48 -7 2 -17 17 -24 33 -11 27 -62 90 -105 132 -68 65 -109 98 -140 112
-19 9 -35 21 -35 26 0 5 -18 15 -40 21 -22 7 -40 16 -40 20 0 4 -26 16 -57 26
-32 9 -60 20 -63 24 -13 16 -156 34 -270 34 -114 0 -226 -16 -240 -35 -3 -3
-32 -15 -65 -25 -33 -10 -62 -21 -65 -25 -3 -3 -41 -24 -85 -45 -44 -21 -86
-44 -92 -51 -7 -7 -29 -18 -48 -24 -19 -6 -35 -15 -35 -19 0 -3 -17 -15 -37
-26 -21 -11 -42 -25 -46 -32 -4 -7 -14 -13 -22 -13 -8 0 -19 -9 -25 -20 -6
-11 -17 -20 -25 -20 -8 0 -20 -8 -27 -18 -7 -9 -26 -26 -43 -36 -16 -11 -36
-28 -43 -38 -7 -10 -17 -16 -22 -13 -4 3 -15 -6 -24 -19 -8 -14 -25 -27 -36
-31 -12 -4 -19 -9 -16 -13 3 -3 -8 -14 -25 -24 -16 -10 -27 -23 -24 -28 3 -6
1 -10 -6 -10 -14 0 -202 -194 -301 -312 -17 -21 -35 -38 -39 -38 -4 0 -15 24
-23 54 -23 78 -23 449 0 494 8 18 20 32 25 32 5 0 14 11 19 25 5 14 13 25 17
25 5 0 17 17 28 38 11 20 25 41 32 45 7 4 13 14 13 21 0 17 23 66 32 66 3 0
12 16 18 35 6 19 15 35 19 35 4 0 16 29 26 65 11 36 22 65 26 65 4 0 15 32 25
70 10 39 21 70 25 70 4 0 13 38 20 85 10 67 18 91 39 115 15 17 32 30 38 30 6
0 17 8 24 18 7 10 20 21 28 25 20 9 49 28 71 47 40 34 50 41 83 57 20 9 36 20
36 24 0 4 23 15 50 25 28 10 50 21 50 25 0 4 16 13 35 19 19 6 35 15 35 19 0
4 27 16 60 27 33 10 60 22 60 26 0 3 34 14 75 24 41 10 75 21 75 25 0 3 53 15
118 24 64 10 121 22 127 27 12 11 285 10 285 -1z m-7617 -1021 c26 -8 47 -17
47 -21 0 -4 22 -15 49 -24 27 -9 51 -21 54 -28 7 -20 -14 -480 -23 -502 -5
-11 -14 -186 -21 -390 -7 -203 -16 -372 -19 -375 -4 -3 -13 -248 -20 -545 -17
-730 -4 -2185 19 -2170 4 2 13 -107 20 -243 7 -136 16 -249 20 -252 4 -3 16
-72 26 -155 10 -82 23 -153 29 -157 15 -10 15 -396 0 -406 -6 -4 -19 -22 -29
-41 -19 -37 -52 -70 -71 -71 -7 0 -14 -6 -17 -13 -2 -6 -22 -18 -43 -26 -22
-8 -42 -19 -46 -25 -8 -12 -199 -24 -415 -25 -138 -1 -293 13 -303 28 -3 4
-21 13 -40 21 -73 30 -160 147 -160 215 0 8 -4 15 -10 15 -13 0 -14 197 -1
202 5 2 17 161 27 353 10 193 21 352 25 355 3 3 12 117 19 253 7 136 17 250
22 253 4 3 8 16 8 29 0 12 7 25 15 29 8 3 15 12 15 21 0 8 6 15 14 15 8 0 18
9 21 20 3 11 15 25 26 30 10 6 19 17 19 25 0 8 8 19 18 24 10 5 24 25 32 45 7
20 17 36 21 36 4 0 15 24 25 53 9 28 22 55 28 59 15 10 15 286 0 296 -5 4 -18
29 -28 55 -10 26 -34 64 -55 83 -20 19 -51 49 -68 66 -18 17 -33 35 -33 39 0
5 -6 9 -12 9 -34 1 -40 16 -22 61 10 24 21 46 25 49 8 6 39 96 39 115 0 7 4
15 9 17 16 5 31 125 31 240 0 116 -17 258 -31 258 -5 0 -9 8 -9 18 0 28 -34
152 -42 152 -4 0 -15 27 -24 60 -9 33 -20 57 -25 54 -5 -3 -9 6 -9 20 0 14 4
26 8 26 5 0 14 18 21 41 7 22 19 43 27 46 8 3 14 13 14 23 0 11 4 21 9 25 5 3
12 19 16 35 4 17 10 30 15 30 5 0 14 16 20 35 6 19 15 35 19 35 4 0 16 26 27
58 10 31 22 60 27 63 15 11 37 145 37 227 0 84 -25 222 -40 222 -4 0 -11 16
-14 36 -4 19 -15 43 -26 54 -10 10 -24 34 -31 53 -7 20 -16 34 -20 32 -3 -3
-14 16 -24 40 -9 25 -21 45 -26 45 -4 0 -16 14 -25 32 -16 32 -26 45 -56 78
-9 10 -25 31 -35 47 -10 15 -26 34 -35 41 -10 7 -18 20 -18 28 0 8 -6 14 -14
14 -15 0 -26 21 -26 52 0 17 5 19 28 14 15 -3 75 -11 133 -18 92 -10 120 -9
222 7 64 10 117 21 117 25 0 4 27 15 60 25 33 10 60 21 60 25 0 4 14 14 32 21
18 7 40 21 50 31 10 10 23 18 29 18 14 0 169 154 169 168 0 6 6 15 13 19 6 4
18 21 26 36 8 15 20 26 25 24 6 -1 32 -9 59 -17z m2057 -165 c0 -50 4 -85 10
-85 6 0 10 -12 10 -26 0 -44 23 -154 32 -154 4 0 8 -6 8 -14 0 -23 33 -116 41
-116 4 0 15 -22 24 -50 9 -27 21 -50 26 -50 5 0 9 -6 9 -14 0 -8 8 -21 18 -28
10 -7 24 -27 31 -45 7 -18 24 -39 37 -48 13 -8 24 -20 24 -26 0 -14 76 -89 90
-89 19 0 10 -27 -20 -58 -16 -18 -30 -36 -30 -42 0 -5 -8 -14 -18 -19 -10 -5
-24 -25 -32 -45 -7 -20 -17 -36 -21 -36 -3 0 -14 -21 -24 -47 -10 -27 -24 -54
-31 -61 -7 -7 -16 -28 -20 -47 -3 -19 -10 -35 -14 -35 -10 0 -27 -70 -36 -147
-3 -35 -11 -63 -15 -63 -5 0 -9 -70 -9 -156 0 -101 3 -153 10 -149 6 4 10 -6
10 -23 0 -38 30 -185 39 -192 4 -3 13 -24 19 -47 7 -24 17 -43 22 -43 6 0 10
-6 10 -14 0 -16 39 -106 40 -91 0 6 9 -9 20 -32 10 -24 23 -43 27 -43 5 0 17
-16 27 -35 10 -19 22 -32 26 -30 4 3 10 -5 13 -16 3 -11 15 -23 26 -26 11 -3
19 -9 16 -13 -3 -4 2 -13 10 -20 13 -11 15 -84 15 -536 0 -287 4 -525 8 -528
5 -3 12 -148 15 -323 8 -390 28 -846 37 -853 4 -3 10 -45 14 -95 9 -124 15
-167 26 -190 17 -36 40 -264 40 -393 0 -132 -9 -183 -35 -211 -8 -9 -29 -33
-47 -53 -17 -21 -38 -38 -45 -38 -7 0 -13 -4 -13 -9 0 -10 -78 -41 -102 -41
-9 0 -18 -5 -20 -11 -5 -16 -600 -18 -605 -1 -3 6 -14 12 -26 12 -116 0 -243
144 -255 288 -5 71 16 374 28 382 4 3 16 120 25 260 10 140 21 257 25 260 4 3
13 106 20 230 7 124 16 227 20 230 4 3 15 167 24 365 10 198 21 376 26 395 18
66 35 754 35 1385 0 621 -17 1186 -36 1193 -5 2 -9 26 -9 53 0 27 -7 124 -15
216 -16 172 -15 182 23 183 6 0 12 4 12 9 0 5 32 17 70 26 39 9 70 21 70 25 0
5 10 12 23 16 12 4 50 20 85 35 34 16 65 28 68 28 4 0 10 4 13 9 6 10 61 41
74 42 4 0 7 -38 7 -85z m-1480 -95 c3 -4 29 -13 58 -20 28 -6 52 -15 52 -19 0
-7 79 -25 165 -37 28 -4 53 -11 56 -16 3 -5 76 -10 162 -11 l155 -2 6 -45 c3
-25 9 -89 12 -142 4 -54 10 -98 14 -98 7 0 26 -288 37 -557 3 -95 10 -173 15
-173 4 0 8 -234 8 -521 0 -286 -4 -518 -8 -515 -5 3 -12 -92 -15 -212 -11
-381 -30 -752 -39 -752 -4 0 -8 -26 -8 -57 0 -104 -23 -462 -30 -458 -3 2 -14
-128 -25 -288 -10 -161 -21 -294 -25 -297 -3 -3 -12 -93 -19 -200 -18 -303
-23 -360 -31 -355 -3 2 -11 -85 -18 -193 -11 -194 -3 -353 18 -360 5 -2 14
-26 21 -54 8 -28 19 -53 26 -55 7 -3 13 -11 13 -18 0 -19 30 -75 41 -75 5 0 9
-7 9 -15 0 -8 9 -20 20 -27 11 -7 20 -18 20 -24 0 -7 19 -27 41 -46 23 -18 53
-43 67 -55 14 -13 28 -23 32 -23 4 0 17 -9 30 -20 13 -11 40 -25 61 -30 21 -6
39 -14 41 -19 2 -5 38 -16 80 -25 110 -23 742 -23 849 -1 40 9 76 20 80 26 3
6 12 11 20 13 35 6 89 28 89 37 0 5 11 14 25 19 14 5 25 14 25 19 0 6 13 17
29 25 33 18 85 67 109 105 9 14 22 30 29 34 7 4 13 14 13 22 0 8 9 22 19 32
10 10 24 37 30 60 6 23 15 43 20 45 13 4 41 146 41 205 0 71 -33 427 -40 433
-7 5 -26 270 -36 515 -4 83 -10 152 -14 155 -7 5 -30 560 -30 722 0 47 -4 88
-9 90 -5 2 -12 194 -16 427 l-8 424 34 -7 c88 -17 233 -28 315 -22 101 7 206
24 214 35 3 4 34 15 70 25 35 9 67 20 70 24 3 4 23 16 45 27 22 11 46 28 53
37 7 10 18 18 24 18 6 0 17 8 24 18 12 15 13 12 14 -23 1 -79 -34 -650 -40
-655 -3 -3 -15 -147 -25 -320 -10 -173 -21 -317 -25 -320 -4 -3 -15 -140 -25
-305 -9 -165 -21 -307 -25 -315 -4 -8 -13 -114 -20 -235 -7 -121 -17 -222 -21
-226 -12 -7 -13 -300 -2 -308 5 -3 15 -35 22 -71 7 -36 16 -67 21 -70 4 -3 16
-25 26 -50 10 -25 21 -47 24 -50 4 -3 9 -12 13 -20 20 -44 65 -91 191 -197 14
-12 39 -24 56 -28 16 -4 30 -11 30 -15 0 -5 26 -17 58 -27 31 -9 59 -21 62
-25 28 -37 833 -38 884 0 6 5 39 17 74 27 34 10 62 21 62 25 0 6 68 42 73 37
1 -1 20 17 41 41 21 23 44 42 52 42 7 0 20 14 29 30 9 17 19 30 24 30 4 0 16
16 27 35 10 19 21 35 25 35 3 0 14 21 24 47 10 27 24 54 31 60 7 7 15 31 19
53 4 22 10 40 15 40 14 0 22 136 15 240 -4 55 -10 98 -15 95 -4 -2 -13 76 -20
175 -8 98 -16 177 -20 175 -7 -4 -26 237 -37 450 -3 72 -9 132 -13 135 -14 10
-32 610 -37 1242 -5 542 -3 649 8 660 8 8 35 20 62 27 26 8 47 17 47 21 0 4
18 13 40 20 23 8 44 19 48 25 4 6 23 17 42 25 19 7 40 18 45 25 6 6 17 14 26
17 19 7 24 -36 35 -304 4 -87 10 -158 14 -158 3 0 14 -171 25 -380 10 -209 21
-380 25 -380 4 0 10 -60 13 -132 17 -353 20 -403 27 -408 3 -3 15 -174 25
-380 10 -206 21 -377 25 -380 4 -3 15 -175 25 -382 10 -208 22 -378 25 -378 4
0 13 -130 20 -290 7 -159 17 -287 22 -284 4 3 8 -28 8 -68 0 -40 3 -103 6
-139 l7 -65 -72 -14 c-39 -7 -71 -16 -71 -20 0 -4 -33 -13 -72 -20 -40 -7 -75
-16 -78 -20 -3 -3 -45 -15 -95 -24 -49 -10 -94 -21 -100 -25 -5 -5 -57 -16
-115 -26 -58 -10 -107 -21 -110 -24 -3 -4 -58 -16 -122 -26 -65 -10 -118 -22
-118 -25 0 -4 -43 -12 -95 -19 -52 -8 -95 -17 -95 -21 0 -3 -6 -7 -12 -7 -38
-2 -254 -38 -258 -43 -3 -4 -75 -15 -160 -25 -85 -10 -157 -22 -160 -25 -5 -8
-56 -14 -198 -26 -46 -4 -78 -10 -72 -14 5 -3 -90 -15 -212 -25 -123 -10 -225
-22 -228 -25 -6 -8 -241 -26 -465 -36 -91 -4 -153 -11 -157 -18 -11 -17 -1530
-15 -1535 2 -3 8 -27 12 -70 12 -122 0 -548 31 -551 41 -2 5 -20 9 -40 9 -65
0 -387 32 -392 40 -3 3 -66 13 -140 20 -74 7 -137 16 -140 20 -3 3 -70 15
-150 25 -80 10 -147 21 -150 24 -3 4 -63 15 -135 25 -71 9 -132 21 -135 25 -3
5 -45 14 -95 21 -49 7 -92 16 -95 20 -3 4 -57 15 -120 24 -63 10 -117 21 -120
25 -3 4 -52 15 -110 25 -58 10 -107 21 -110 25 -3 4 -45 15 -95 25 -49 10 -94
21 -100 26 -5 4 -40 13 -78 20 -37 7 -67 15 -67 19 0 4 -43 15 -95 25 l-95 18
0 37 c0 75 24 371 30 371 4 0 13 90 20 200 7 110 16 200 20 200 3 0 15 118 25
263 10 144 21 264 25 267 3 3 12 84 19 180 7 96 13 183 15 192 2 20 55 68 74
68 7 0 15 6 18 14 3 7 21 22 40 32 18 10 41 33 49 51 9 18 20 33 26 33 5 0 14
11 19 25 5 14 13 25 18 25 5 0 17 19 28 43 10 23 22 44 25 47 4 3 15 24 24 48
10 23 24 42 32 42 12 0 13 -20 7 -132 -4 -73 -10 -135 -14 -138 -4 -3 -11 -99
-15 -215 -4 -115 -8 -228 -10 -250 -2 -22 -7 -127 -11 -233 -3 -105 -10 -192
-15 -192 -5 0 -9 -22 -9 -50 0 -27 5 -50 10 -50 6 0 10 -16 10 -35 0 -44 31
-185 41 -185 4 0 15 -22 25 -49 10 -28 21 -48 24 -46 4 2 13 -8 21 -23 8 -14
21 -34 29 -43 8 -10 31 -36 50 -58 19 -23 38 -41 42 -41 5 0 17 -8 28 -17 11
-10 28 -25 38 -34 10 -9 40 -24 65 -35 26 -10 47 -22 47 -26 0 -3 24 -12 53
-18 28 -7 55 -18 59 -24 10 -16 846 -16 856 0 4 7 27 18 52 25 25 7 47 16 50
19 3 3 21 12 40 20 19 7 51 26 71 42 20 15 42 28 48 28 6 0 11 3 11 8 0 4 26
35 58 69 78 83 100 113 108 145 3 16 9 28 14 28 4 0 16 30 26 67 9 38 22 74
28 82 14 19 13 290 -1 299 -6 4 -19 102 -28 217 -10 116 -22 212 -25 215 -7 5
-41 504 -40 597 0 28 -4 53 -9 55 -14 5 -31 698 -31 1238 0 557 18 1350 31
1365 5 5 9 41 9 80 0 151 31 741 40 757 6 10 10 49 10 87 0 38 3 83 6 100 6
27 10 30 28 25 11 -4 23 -10 26 -14z m5387 -47 c-3 -10 -5 -4 -5 12 0 17 2 24
5 18 2 -7 2 -21 0 -30z m1606 -24 c20 -5 37 -14 37 -18 0 -5 11 -12 24 -15 27
-7 126 -103 126 -123 0 -7 5 -13 11 -13 5 0 17 -17 26 -37 8 -21 19 -40 23
-43 4 -3 13 -22 19 -42 7 -21 16 -38 20 -38 4 0 16 -37 26 -82 10 -46 22 -85
25 -88 10 -8 28 -88 35 -162 4 -38 11 -68 15 -68 10 0 31 -202 37 -372 3 -82
10 -148 15 -148 10 0 5 -228 -10 -395 -16 -187 -35 -325 -43 -325 -5 0 -9 -11
-9 -25 0 -36 -30 -179 -39 -185 -4 -3 -16 -42 -26 -87 -10 -46 -22 -83 -26
-83 -4 0 -12 -22 -19 -50 -7 -27 -16 -50 -21 -50 -5 0 -9 -5 -9 -12 0 -18 -33
-88 -42 -88 -4 0 -8 -6 -8 -13 0 -21 -30 -77 -41 -77 -5 0 -9 -7 -9 -15 0 -8
-8 -23 -17 -33 -10 -10 -25 -31 -33 -47 -16 -31 -153 -172 -209 -215 -18 -14
-39 -31 -47 -38 -7 -7 -29 -19 -49 -27 -19 -9 -35 -19 -35 -24 0 -4 -18 -14
-40 -21 -22 -7 -40 -16 -40 -20 0 -4 -21 -15 -47 -25 -27 -10 -53 -24 -60 -30
-6 -7 -39 -18 -72 -25 -34 -7 -61 -16 -61 -20 0 -4 -27 -13 -60 -20 -33 -7
-60 -16 -60 -19 0 -9 -155 -31 -267 -38 -51 -3 -93 -10 -93 -14 0 -5 -74 -9
-164 -9 l-163 0 -6 83 c-4 45 -7 112 -7 149 0 36 -4 68 -8 70 -7 3 -43 600
-42 706 0 26 -4 41 -10 37 -6 -4 -10 11 -10 37 1 92 -34 663 -41 668 -3 3 -10
80 -14 171 -6 136 -4 168 7 180 8 8 23 30 34 49 10 19 27 41 37 48 9 7 17 20
17 28 0 8 7 17 15 20 8 4 15 12 15 20 0 7 8 19 18 26 9 7 24 27 32 43 8 17 26
42 40 56 14 14 34 38 45 53 11 15 32 41 48 59 15 17 27 35 27 39 0 4 23 29 50
55 28 26 50 51 50 55 0 9 282 293 292 293 4 0 21 15 39 33 17 17 36 32 41 32
6 0 19 11 30 25 11 14 23 25 28 25 5 0 20 10 34 23 37 34 48 41 89 60 20 10
37 22 37 26 0 5 14 14 30 21 17 7 30 16 30 20 0 4 26 15 58 26 31 10 59 22 62
26 19 25 242 37 313 17z m-3396 -1795 c21 -4 40 -10 43 -14 6 -9 179 -40 220
-40 14 0 31 -5 38 -12 9 -9 67 -12 203 -12 156 0 192 2 199 14 8 13 10 13 10
0 0 -13 1 -13 10 0 6 10 10 -171 10 -520 0 -555 17 -1291 30 -1300 4 -3 10
-77 14 -165 10 -228 25 -398 35 -404 4 -4 17 -77 27 -163 10 -87 22 -158 26
-158 5 0 8 -71 8 -157 0 -92 -4 -152 -9 -145 -6 10 -10 3 -15 -22 -4 -20 -22
-52 -41 -73 -19 -21 -35 -41 -35 -44 0 -3 -17 -14 -37 -25 -21 -10 -40 -22
-43 -25 -21 -24 -94 -32 -351 -36 -234 -5 -288 -3 -360 12 -46 9 -86 20 -89
23 -3 4 -22 16 -42 27 -20 10 -42 30 -50 44 -7 14 -20 34 -29 43 -10 10 -23
42 -30 73 -7 30 -16 55 -21 55 -4 0 -8 38 -8 85 0 47 4 85 8 85 5 0 17 111 27
248 10 136 21 252 25 257 4 6 16 141 26 300 10 160 21 292 24 295 7 5 40 568
40 668 0 28 4 52 8 52 8 0 32 434 32 578 0 53 4 81 10 77 7 -4 10 48 10 148 0
182 7 250 26 243 7 -3 30 -8 51 -12z m2205 -4276 c37 -20 86 -77 98 -114 7
-19 15 -34 19 -34 14 0 31 -109 31 -192 0 -83 -17 -171 -30 -163 -5 3 -14 -8
-22 -25 -7 -16 -18 -30 -25 -30 -6 0 -18 -8 -25 -18 -7 -10 -32 -27 -55 -37
-24 -10 -43 -22 -43 -25 0 -4 -25 -15 -55 -25 -30 -11 -55 -22 -55 -26 0 -3
-27 -12 -60 -19 -33 -7 -60 -16 -60 -20 0 -3 -36 -14 -80 -24 -44 -9 -80 -21
-80 -25 0 -5 -40 -16 -90 -27 -49 -10 -90 -21 -90 -25 0 -3 -27 -12 -60 -19
-33 -7 -60 -16 -60 -20 0 -4 -37 -15 -82 -24 -45 -9 -84 -20 -87 -24 -3 -5
-46 -17 -96 -26 -49 -10 -94 -21 -100 -26 -5 -4 -54 -15 -107 -25 -54 -9 -100
-21 -103 -25 -3 -5 -39 -14 -80 -21 -41 -6 -75 -15 -75 -19 0 -3 -54 -15 -120
-25 -65 -10 -117 -21 -115 -25 2 -4 -53 -15 -123 -24 -70 -10 -129 -21 -132
-26 -3 -4 -50 -13 -105 -20 -55 -8 -102 -17 -105 -22 -3 -4 -69 -15 -145 -24
-77 -10 -142 -21 -145 -24 -3 -4 -86 -15 -185 -25 -99 -10 -182 -21 -185 -25
-5 -7 -363 -40 -437 -40 -23 0 -43 -4 -45 -9 -1 -5 -119 -14 -260 -22 -142 -7
-258 -16 -258 -19 0 -13 -708 -20 -955 -10 -330 13 -769 41 -775 50 -3 4 -43
10 -90 14 -196 14 -335 29 -340 36 -3 3 -81 15 -175 24 -93 10 -172 21 -175
25 -3 4 -63 15 -135 25 -71 9 -132 21 -135 25 -3 4 -43 14 -90 21 -47 7 -87
16 -90 20 -3 4 -54 15 -115 24 -60 10 -112 21 -115 25 -3 4 -53 16 -112 26
-60 10 -108 21 -108 24 0 4 -34 13 -75 20 -41 7 -75 16 -75 20 0 4 -43 15 -95
25 -52 10 -95 21 -95 25 0 4 -43 15 -95 26 -52 10 -92 21 -90 25 2 3 -34 15
-81 25 -46 10 -84 21 -84 25 0 3 -23 12 -50 19 -28 7 -50 16 -50 20 0 4 -36
16 -80 26 -44 10 -80 21 -80 25 0 4 -27 15 -60 24 -33 9 -60 20 -60 25 0 4
-23 13 -50 20 -28 7 -50 17 -50 21 0 5 -16 12 -35 16 -19 3 -38 10 -41 15 -3
5 -16 9 -30 9 -13 0 -24 5 -24 10 0 6 -6 10 -13 10 -22 0 -78 31 -84 46 -3 8
-11 14 -19 14 -8 0 -14 5 -14 10 0 6 -8 18 -19 29 -23 23 -51 104 -51 147 0
18 -6 35 -12 38 -11 5 -11 7 0 12 6 3 12 20 12 37 1 50 27 161 39 165 6 2 11
10 11 18 0 38 57 100 101 109 30 7 139 -13 139 -25 0 -4 32 -13 70 -20 39 -7
70 -16 70 -20 0 -4 40 -15 90 -26 49 -10 90 -21 90 -25 0 -3 19 -10 43 -14 23
-5 44 -9 47 -10 3 -1 24 -5 48 -10 23 -4 42 -10 42 -14 0 -4 48 -15 107 -26
60 -10 110 -22 113 -26 3 -4 41 -13 85 -20 44 -7 82 -16 85 -20 3 -3 50 -14
105 -24 55 -10 102 -21 105 -25 3 -4 64 -16 135 -26 72 -10 132 -21 135 -25 3
-4 48 -13 100 -20 52 -7 97 -16 100 -19 3 -4 75 -15 160 -26 85 -10 157 -21
160 -25 3 -3 80 -14 172 -25 92 -10 165 -21 163 -25 -3 -3 68 -12 158 -19 89
-7 164 -16 167 -20 5 -8 430 -40 522 -40 31 0 58 -4 60 -9 13 -38 2012 -37
2026 0 2 5 27 9 55 9 89 0 532 33 537 40 3 4 76 13 162 20 87 7 156 16 153 20
-2 3 75 15 171 25 95 10 174 21 174 25 0 4 66 15 147 24 81 10 150 21 153 25
3 4 53 14 113 21 59 8 107 17 107 20 0 4 56 15 125 25 69 10 125 21 125 25 0
4 50 15 110 25 61 10 110 21 110 25 0 3 36 12 80 19 44 8 80 17 80 20 0 4 37
13 83 20 45 7 96 18 112 26 17 7 69 21 118 30 48 10 87 21 87 26 0 5 8 9 18 9
29 0 163 35 157 41 -3 3 26 11 64 18 39 7 71 16 73 20 3 6 114 37 144 40 7 0
22 -5 36 -11z"/>
<path d="M3470 11164 c-36 -8 -66 -19 -68 -24 -2 -6 -10 -10 -19 -10 -17 0
-76 -31 -81 -42 -2 -5 -9 -8 -15 -8 -7 0 -25 -11 -41 -25 -16 -14 -32 -25 -36
-25 -9 0 -135 -123 -135 -132 0 -5 -12 -21 -27 -37 -15 -16 -32 -41 -38 -55
-5 -14 -13 -26 -18 -26 -5 0 -15 -18 -22 -40 -7 -22 -16 -40 -20 -40 -3 0 -14
-26 -24 -57 -10 -32 -22 -60 -25 -63 -4 -3 -14 -30 -22 -60 l-14 -55 -200 -6
c-203 -6 -295 -16 -295 -29 0 -5 -22 -13 -50 -20 -27 -7 -50 -15 -50 -19 0 -4
-16 -15 -35 -24 -19 -9 -35 -21 -35 -27 0 -5 -6 -10 -14 -10 -15 0 -116 -94
-116 -108 0 -5 -11 -22 -25 -38 -14 -16 -25 -34 -25 -41 0 -7 -6 -16 -13 -20
-7 -4 -19 -24 -27 -43 -8 -19 -19 -40 -25 -46 -6 -6 -17 -31 -25 -55 -8 -24
-17 -46 -21 -49 -18 -13 -27 -169 -20 -365 7 -235 5 -228 98 -305 27 -23 161
-21 174 3 6 9 16 17 24 17 26 0 48 66 42 123 -24 204 -27 249 -22 302 9 87 26
175 35 175 4 0 15 20 24 45 10 25 21 45 26 45 4 0 25 18 46 40 22 22 45 40 52
40 6 0 12 4 12 9 0 5 16 15 35 21 19 6 35 15 35 19 0 10 140 41 185 41 18 0
37 5 40 10 3 6 48 10 100 10 52 0 97 -4 100 -10 3 -5 22 -10 42 -10 54 0 243
-33 243 -42 0 -4 4 -8 9 -8 4 0 14 28 21 63 6 34 15 64 19 67 4 3 15 40 25 83
10 42 21 77 26 77 4 0 13 20 19 45 6 25 15 45 20 45 5 0 17 20 27 45 9 25 20
45 25 45 4 0 10 9 14 19 8 25 104 121 122 121 7 0 16 6 19 14 3 8 19 20 35 26
16 7 29 16 29 20 0 15 137 40 213 40 90 0 234 -26 254 -46 8 -8 21 -14 28 -14
7 0 20 -6 27 -12 7 -7 37 -21 67 -32 30 -10 60 -24 68 -31 7 -8 38 -19 68 -26
30 -7 52 -15 50 -20 -3 -4 26 -12 64 -19 82 -14 146 -1 156 30 4 11 11 20 16
20 5 0 9 14 9 30 0 17 -4 30 -10 30 -5 0 -10 9 -10 20 0 20 -76 110 -93 110
-5 0 -19 9 -31 20 -56 52 -92 80 -103 80 -7 0 -13 4 -13 10 0 5 -15 17 -32 26
-18 9 -35 20 -38 23 -3 4 -23 15 -45 25 -22 11 -42 22 -45 26 -3 4 -25 15 -50
23 -25 9 -40 16 -35 17 6 0 -17 10 -50 22 -33 11 -62 24 -65 28 -3 3 -48 14
-101 23 -116 21 -327 21 -419 1z"/>
<path d="M6520 10274 c-14 -2 -55 -9 -93 -15 -37 -6 -65 -14 -63 -18 3 -4 -17
-13 -44 -20 -28 -7 -50 -16 -50 -20 0 -5 -18 -16 -40 -26 -22 -10 -40 -21 -40
-25 0 -3 -16 -14 -35 -23 -19 -9 -35 -21 -35 -27 0 -5 -6 -10 -12 -10 -16 -1
-178 -163 -178 -177 0 -6 -7 -13 -15 -17 -8 -3 -20 -17 -25 -31 -5 -14 -14
-25 -20 -25 -6 0 -17 -18 -26 -40 -9 -22 -20 -40 -24 -40 -5 0 -14 -16 -21
-35 -7 -19 -17 -35 -21 -35 -4 0 -8 -9 -8 -20 0 -11 5 -20 10 -20 6 0 10 -8
10 -18 0 -24 35 -60 65 -68 32 -8 128 15 138 32 4 8 13 14 19 14 6 0 18 7 27
15 61 55 85 75 92 75 4 0 30 22 58 49 29 28 61 53 71 56 11 4 20 10 20 15 0 5
21 16 48 26 26 10 50 23 54 28 10 16 247 15 256 -1 4 -6 26 -19 50 -28 23 -10
42 -20 42 -25 0 -4 16 -15 35 -26 19 -10 35 -22 35 -27 0 -4 15 -23 34 -42 19
-19 42 -49 53 -67 10 -18 24 -37 31 -41 6 -4 12 -14 12 -22 0 -8 8 -22 19 -32
10 -10 24 -35 32 -55 7 -21 19 -40 26 -42 16 -7 65 11 75 27 4 7 11 12 15 12
4 0 37 14 73 31 36 18 81 35 100 39 19 4 37 11 40 16 3 5 50 14 103 21 110 14
246 1 273 -27 9 -8 20 -15 26 -15 12 0 78 -61 78 -72 0 -5 9 -17 19 -27 11
-11 23 -36 27 -55 3 -20 10 -36 14 -36 10 0 20 -53 30 -164 5 -49 12 -92 17
-95 4 -3 14 -18 22 -33 19 -38 97 -56 168 -39 39 10 53 19 68 44 10 18 23 35
29 39 15 10 15 187 0 196 -7 4 -20 48 -30 97 -10 50 -21 92 -24 95 -3 3 -11
23 -19 45 -8 22 -17 42 -20 45 -3 3 -15 22 -26 44 -31 61 -182 206 -214 206
-6 0 -11 4 -11 9 0 18 -109 61 -182 71 -40 6 -98 8 -128 5 -108 -12 -200 -28
-200 -35 0 -4 -19 -10 -43 -13 -24 -3 -51 -9 -60 -13 -11 -4 -19 0 -24 12 -7
18 -22 38 -60 78 -13 13 -23 26 -23 30 0 9 -108 116 -118 116 -5 0 -18 11 -29
24 -12 13 -37 29 -57 36 -20 6 -36 15 -36 20 0 5 -17 14 -37 21 -21 6 -40 15
-43 19 -15 20 -217 45 -280 34z"/>
</g>
</svg>
