<svg width="18" height="15" viewBox="0 0 18 15" fill="none" xmlns="http://www.w3.org/2000/svg">
<path d="M17.1797 0.0703125V12.8086C17.1797 13.4117 17.0014 13.9152 16.6465 14.3223C16.2922 14.7289 15.8582 14.9297 15.3408 14.9297H6.01465C5.7742 14.9297 5.56847 14.8326 5.39355 14.6318C5.21841 14.4308 5.12988 14.1897 5.12988 13.9043V11.7832H7.77344V8.06445L7.6875 8.08496C7.09447 8.22793 6.48602 8.20645 5.86133 8.01953C5.2459 7.8352 4.73893 7.51315 4.33691 7.05469V5.4707H2.94434L0.344727 2.48926C0.875795 1.9456 1.47523 1.53792 2.14355 1.26562C2.83165 0.985283 3.53914 0.844763 4.2666 0.844727C4.8706 0.844727 5.45796 0.943602 6.02832 1.14062C6.59764 1.33706 7.14113 1.64547 7.65918 2.06641L7.77344 2.15918V0.0703125H17.1797ZM5.94434 13.9746H13.8584L13.7783 13.8633C13.6752 13.7209 13.6028 13.561 13.5625 13.3828C13.5216 13.2011 13.501 13.0095 13.501 12.8086V12.7393H5.94434V13.9746ZM8.58789 2.875L8.60547 2.89453L13.8389 8.89941V9.5791H13.2656L10.3818 6.26953L10.3291 6.20898L10.2764 6.26953L9.73633 6.88965C9.5525 7.10059 9.37271 7.27647 9.19727 7.41797C9.02166 7.55976 8.83117 7.68454 8.62598 7.79199L8.58789 7.81152V11.7832H14.3164V12.8086C14.3164 13.1338 14.4121 13.4115 14.6074 13.6357C14.8032 13.8605 15.0494 13.9746 15.3408 13.9746C15.632 13.9746 15.8775 13.8602 16.0732 13.6357C16.2686 13.4115 16.3652 13.1338 16.3652 12.8086V1.02539H8.58789V2.875ZM4.2666 1.80078C3.79453 1.80081 3.33493 1.87141 2.88867 2.0127C2.4445 2.1534 2.04557 2.33619 1.69238 2.56152L1.62305 2.60547L1.67676 2.66699L3.2666 4.49121L3.28809 4.51465H5.15137V6.62598L5.18066 6.64648C5.5103 6.87981 5.82053 7.04124 6.11035 7.12695C6.3963 7.21137 6.67546 7.2539 6.94727 7.25391C7.39106 7.25391 7.79636 7.16687 8.16211 6.99219C8.52788 6.81734 8.86863 6.54713 9.18457 6.18457L9.70605 5.58691L9.74609 5.54102L9.70605 5.49414L8.03906 3.58203C7.52259 2.98972 6.94246 2.54354 6.29883 2.24609C5.65579 1.94905 4.97792 1.80078 4.2666 1.80078Z" fill="black" stroke="black" stroke-width="0.14"/>
</svg>
