<svg width="23" height="14" viewBox="0 0 23 14" fill="none" xmlns="http://www.w3.org/2000/svg">
<path d="M16.6777 0.00535393C16.4872 0.0591393 16.2769 0.210253 16.1511 0.38954C15.9731 0.63798 15.8851 0.891544 15.8491 1.25012C15.8311 1.43453 15.8329 1.49856 15.8581 1.67016C15.8976 1.94678 15.9929 2.21315 16.1169 2.39244C16.1763 2.47696 16.8197 3.15312 17.6466 3.99834L19.0737 5.45825L9.9355 5.47105C1.37425 5.48386 0.791871 5.48642 0.710985 5.5274C0.448558 5.66058 0.234661 5.91671 0.117827 6.23174C-0.0870827 6.78753 -0.020577 7.44065 0.28499 7.88118C0.410811 8.06303 0.511468 8.1578 0.675036 8.24488L0.779289 8.30123L9.90675 8.31403L19.0342 8.32684L17.6825 9.90201C16.9384 10.7677 16.2877 11.5361 16.2374 11.6104C16.1852 11.6846 16.1151 11.8255 16.0774 11.9305C15.8761 12.5042 15.9462 13.1343 16.2661 13.5928C16.4531 13.8617 16.6849 14 16.9528 14C17.1307 14 17.2871 13.9437 17.4381 13.8258C17.5639 13.7259 22.5554 7.92729 22.7262 7.68141C23.0138 7.26648 23.0839 6.60056 22.8933 6.06014C22.8106 5.81938 22.6794 5.64265 22.311 5.26359C20.3589 3.2607 17.456 0.294773 17.3734 0.217937C17.2242 0.0796289 17.075 0.0130367 16.8844 0.0027914C16.7964 -0.00233078 16.7029 0.000230789 16.6777 0.00535393Z" fill="white"/>
</svg>
